<svg class="grid4_svg" viewBox="0 0 53 53" fill="none" xmlns="http://www.w3.org/2000/svg">
<path d="M49.6875 51.3438H13.25C12.8107 51.3438 12.3895 51.1693 12.0789 50.8586C11.7682 50.548 11.5938 50.1268 11.5938 49.6875C11.5938 49.2482 11.7682 48.827 12.0789 48.5164C12.3895 48.2057 12.8107 48.0312 13.25 48.0312H48.0312V11.5938H46.375C45.9357 11.5938 45.5145 11.4193 45.2039 11.1086C44.8932 10.798 44.7188 10.3768 44.7188 9.9375C44.7188 9.49824 44.8932 9.07696 45.2039 8.76635C45.5145 8.45575 45.9357 8.28125 46.375 8.28125H49.6875C50.1268 8.28125 50.548 8.45575 50.8586 8.76635C51.1693 9.07696 51.3438 9.49824 51.3438 9.9375V49.6875C51.3438 50.1268 51.1693 50.548 50.8586 50.8586C50.548 51.1693 50.1268 51.3438 49.6875 51.3438Z" fill="currentColor"/>
<path d="M3.31251 36.2057C2.87801 36.2038 2.46163 36.0313 2.15313 35.7253C1.84466 35.415 1.67151 34.9952 1.67151 34.5577C1.67151 34.1201 1.84466 33.7003 2.15313 33.39L8.86095 26.5C9.60391 25.7412 10.5951 25.2752 11.6534 25.187C12.7117 25.0988 13.7664 25.3944 14.6247 26.0197L20.5706 30.326C20.7895 30.4811 21.0566 30.553 21.3238 30.5287C21.591 30.5044 21.8408 30.3855 22.0281 30.1935L28.1563 24.0322C29.0054 23.2125 30.1395 22.7544 31.3197 22.7544C32.4999 22.7544 33.634 23.2125 34.4831 24.0322L40.9094 30.5413C41.1786 30.86 41.3177 31.2686 41.2987 31.6855C41.2797 32.1023 41.1041 32.4965 40.8069 32.7895C40.5098 33.0824 40.1131 33.2524 39.696 33.2655C39.279 33.2786 38.8724 33.1338 38.5575 32.86L32.1313 26.351C32.0245 26.2387 31.896 26.1493 31.7537 26.0883C31.6113 26.0272 31.458 25.9957 31.3031 25.9957C31.1482 25.9957 30.9949 26.0272 30.8526 26.0883C30.7102 26.1493 30.5818 26.2387 30.475 26.351L24.3303 32.5619C23.5877 33.3201 22.5979 33.7871 21.5405 33.8783C20.4831 33.9695 19.428 33.6787 18.5666 33.0588L12.6206 28.7525C12.4049 28.592 12.1382 28.5152 11.8701 28.5365C11.602 28.5578 11.3508 28.6758 11.1631 28.8685L4.48845 35.7088C4.33505 35.8653 4.15213 35.9898 3.95027 36.0751C3.74842 36.1604 3.53164 36.2047 3.31251 36.2057Z" fill="#F8AF5E"/>
<path d="M22.9391 21.2993C21.6288 21.2993 20.3479 20.9108 19.2584 20.1828C18.169 19.4548 17.3198 18.4202 16.8184 17.2096C16.317 15.999 16.1858 14.667 16.4414 13.3818C16.697 12.0967 17.328 10.9163 18.2545 9.98974C19.181 9.06321 20.3615 8.43224 21.6466 8.17662C22.9317 7.92099 24.2638 8.05219 25.4744 8.55362C26.6849 9.05505 27.7196 9.90419 28.4476 10.9937C29.1755 12.0831 29.5641 13.364 29.5641 14.6743C29.5641 15.5443 29.3927 16.4058 29.0598 17.2096C28.7269 18.0134 28.2389 18.7437 27.6237 19.3589C27.0085 19.9741 26.2781 20.4621 25.4744 20.795C24.6706 21.128 23.8091 21.2993 22.9391 21.2993ZM22.9391 11.3618C22.2839 11.3618 21.6435 11.5561 21.0988 11.9201C20.554 12.2841 20.1295 12.8014 19.8787 13.4067C19.628 14.012 19.5624 14.678 19.6902 15.3206C19.8181 15.9631 20.1335 16.5534 20.5968 17.0166C21.0601 17.4799 21.6503 17.7954 22.2929 17.9232C22.9354 18.051 23.6014 17.9854 24.2067 17.7347C24.812 17.484 25.3294 17.0594 25.6933 16.5146C26.0573 15.9699 26.2516 15.3295 26.2516 14.6743C26.2516 13.7958 25.9026 12.9532 25.2814 12.332C24.6602 11.7108 23.8176 11.3618 22.9391 11.3618Z" fill="#F8AF5E"/>
<path d="M39.75 44.7188H3.3125C2.87324 44.7188 2.45196 44.5443 2.14135 44.2336C1.83075 43.923 1.65625 43.5018 1.65625 43.0625V3.3125C1.65625 2.87324 1.83075 2.45196 2.14135 2.14135C2.45196 1.83075 2.87324 1.65625 3.3125 1.65625H39.75C40.1893 1.65625 40.6105 1.83075 40.9211 2.14135C41.2318 2.45196 41.4062 2.87324 41.4062 3.3125V43.0625C41.4062 43.5018 41.2318 43.923 40.9211 44.2336C40.6105 44.5443 40.1893 44.7188 39.75 44.7188ZM4.96875 41.4062H38.0938V4.96875H4.96875V41.4062Z" fill="currentColor"/>
</svg>
