<svg class="arrow_right" viewBox="0 0 14 14" fill="none" xmlns="http://www.w3.org/2000/svg">
<path d="M4.08682 13.4152C4.20811 13.4155 4.32826 13.3918 4.44036 13.3455C4.55246 13.2992 4.6543 13.2312 4.74003 13.1454L10.2298 7.6542C10.4028 7.48112 10.5 7.24642 10.5 7.00171C10.5 6.75699 10.4028 6.52229 10.2298 6.34921L4.76133 0.880711C4.67706 0.7893 4.57519 0.715855 4.46184 0.664784C4.34849 0.613713 4.22599 0.586068 4.10169 0.583509C3.97739 0.580949 3.85385 0.603527 3.73849 0.649888C3.62314 0.696249 3.51833 0.765438 3.43037 0.853302C3.34241 0.941166 3.27311 1.04589 3.22662 1.1612C3.18014 1.27651 3.15742 1.40002 3.15985 1.52433C3.16227 1.64863 3.18978 1.77116 3.24073 1.88457C3.29168 1.99797 3.36501 2.09992 3.45633 2.18429L8.27162 7.001L3.43361 11.8404C3.30431 11.9695 3.21622 12.1341 3.18052 12.3133C3.14482 12.4925 3.1631 12.6782 3.23305 12.847C3.303 13.0158 3.42147 13.16 3.57345 13.2614C3.72544 13.3628 3.90411 13.4169 4.08682 13.4166V13.4152Z" fill="#2D4366"/>
</svg>
