<svg class="grid3_svg" viewBox="0 0 54 54" fill="none" xmlns="http://www.w3.org/2000/svg">
<g clip-path="url(#clip0_1_2435)">
<path d="M50.625 5.0625H3.375C2.47989 5.0625 1.62145 5.41808 0.988515 6.05101C0.355579 6.68395 0 7.54239 0 8.4375L0 40.5C0 41.3951 0.355579 42.2535 0.988515 42.8865C1.62145 43.5194 2.47989 43.875 3.375 43.875H23.625V47.25H16.875V48.9375H37.125V47.25H30.375V43.875H50.625C51.5201 43.875 52.3785 43.5194 53.0115 42.8865C53.6444 42.2535 54 41.3951 54 40.5V8.4375C54 7.54239 53.6444 6.68395 53.0115 6.05101C52.3785 5.41808 51.5201 5.0625 50.625 5.0625ZM28.6875 47.25H25.3125V43.875H28.6875V47.25ZM52.3125 40.5C52.3125 40.9476 52.1347 41.3768 51.8182 41.6932C51.5018 42.0097 51.0726 42.1875 50.625 42.1875H3.375C2.92745 42.1875 2.49822 42.0097 2.18176 41.6932C1.86529 41.3768 1.6875 40.9476 1.6875 40.5V8.4375C1.6875 7.98995 1.86529 7.56073 2.18176 7.24426C2.49822 6.92779 2.92745 6.75 3.375 6.75H50.625C51.0726 6.75 51.5018 6.92779 51.8182 7.24426C52.1347 7.56073 52.3125 7.98995 52.3125 8.4375V40.5Z" fill="currentColor"/>
<path d="M3.375 35.4375H50.625V8.4375H3.375V35.4375ZM5.0625 10.125H48.9375V33.75H5.0625V10.125Z" fill="currentColor"/>
<path d="M27 40.5C27.932 40.5 28.6875 39.7445 28.6875 38.8125C28.6875 37.8805 27.932 37.125 27 37.125C26.068 37.125 25.3125 37.8805 25.3125 38.8125C25.3125 39.7445 26.068 40.5 27 40.5Z" fill="currentColor"/>
</g>
<defs>
<clipPath id="clip0_1_2435">
<rect width="54" height="54" fill="white"/>
</clipPath>
</defs>
</svg>
