<svg class="grid4_svg" viewBox="0 0 53 53" fill="none" xmlns="http://www.w3.org/2000/svg">
<path d="M19.6324 2.72702L18.4614 3.89798L20.3603 5.79688H13.25V3.3125C13.25 2.85455 12.879 2.48438 12.4219 2.48438H2.48438C2.02725 2.48438 1.65625 2.85455 1.65625 3.3125V9.9375C1.65625 10.3955 2.02725 10.7656 2.48438 10.7656H12.4219C12.879 10.7656 13.25 10.3955 13.25 9.9375V7.45312H20.3603L18.4614 9.35202L19.6324 10.523L22.9449 7.21048C23.1063 7.049 23.1875 6.837 23.1875 6.625C23.1875 6.413 23.1063 6.201 22.9449 6.03952L19.6324 2.72702ZM11.5938 9.10938H3.3125V4.14062H11.5938V9.10938Z" fill="#2D4366"/>
<path d="M50.5156 2.48438H24.0156C23.5585 2.48438 23.1875 2.85455 23.1875 3.3125V6.625V9.9375C23.1875 10.3955 23.5585 10.7656 24.0156 10.7656H47.2031C49.4863 10.7656 51.3438 8.90814 51.3438 6.625V3.3125C51.3438 2.85455 50.9727 2.48438 50.5156 2.48438ZM49.6875 6.625C49.6875 7.99472 48.5728 9.10938 47.2031 9.10938H24.8438V4.14062H49.6875V6.625Z" fill="#F8AF5E"/>
<path d="M19.6324 15.977L18.4614 17.148L20.3603 19.0469H13.25V16.5625C13.25 16.1045 12.879 15.7344 12.4219 15.7344H2.48438C2.02725 15.7344 1.65625 16.1045 1.65625 16.5625V23.1875C1.65625 23.6455 2.02725 24.0156 2.48438 24.0156H12.4219C12.879 24.0156 13.25 23.6455 13.25 23.1875V20.7031H20.3603L18.4614 22.602L19.6324 23.773L22.9449 20.4605C23.1063 20.299 23.1875 20.087 23.1875 19.875C23.1875 19.663 23.1063 19.451 22.9449 19.2895L19.6324 15.977ZM11.5938 22.3594H3.3125V17.3906H11.5938V22.3594Z" fill="#2D4366"/>
<path d="M50.5156 15.7344H24.0156C23.5585 15.7344 23.1875 16.1045 23.1875 16.5625V19.875V23.1875C23.1875 23.6455 23.5585 24.0156 24.0156 24.0156H47.2031C49.4863 24.0156 51.3438 22.1581 51.3438 19.875V16.5625C51.3438 16.1045 50.9727 15.7344 50.5156 15.7344ZM49.6875 19.875C49.6875 21.2447 48.5728 22.3594 47.2031 22.3594H24.8438V17.3906H49.6875V19.875Z" fill="#F8AF5E"/>
<path d="M19.6324 29.227L18.4614 30.398L20.3603 32.2969H13.25V29.8125C13.25 29.3545 12.879 28.9844 12.4219 28.9844H2.48438C2.02725 28.9844 1.65625 29.3545 1.65625 29.8125V36.4375C1.65625 36.8955 2.02725 37.2656 2.48438 37.2656H12.4219C12.879 37.2656 13.25 36.8955 13.25 36.4375V33.9531H20.3603L18.4614 35.852L19.6324 37.023L22.9449 33.7105C23.1063 33.549 23.1875 33.337 23.1875 33.125C23.1875 32.913 23.1063 32.701 22.9449 32.5395L19.6324 29.227ZM11.5938 35.6094H3.3125V30.6406H11.5938V35.6094Z" fill="#2D4366"/>
<path d="M50.5156 28.9844H24.0156C23.5585 28.9844 23.1875 29.3545 23.1875 29.8125V33.125V36.4375C23.1875 36.8955 23.5585 37.2656 24.0156 37.2656H47.2031C49.4863 37.2656 51.3438 35.4081 51.3438 33.125V29.8125C51.3438 29.3545 50.9727 28.9844 50.5156 28.9844ZM49.6875 33.125C49.6875 34.4947 48.5728 35.6094 47.2031 35.6094H24.8438V30.6406H49.6875V33.125Z" fill="#F8AF5E"/>
<path d="M19.6324 42.477L18.4614 43.648L20.3603 45.5469H13.25V43.0625C13.25 42.6045 12.879 42.2344 12.4219 42.2344H2.48438C2.02725 42.2344 1.65625 42.6045 1.65625 43.0625V49.6875C1.65625 50.1455 2.02725 50.5156 2.48438 50.5156H12.4219C12.879 50.5156 13.25 50.1455 13.25 49.6875V47.2031H20.3603L18.4614 49.102L19.6324 50.273L22.9449 46.9605C23.1063 46.799 23.1875 46.587 23.1875 46.375C23.1875 46.163 23.1063 45.951 22.9449 45.7895L19.6324 42.477ZM11.5938 48.8594H3.3125V43.8906H11.5938V48.8594Z" fill="#2D4366"/>
<path d="M50.5156 42.2344H24.0156C23.5585 42.2344 23.1875 42.6045 23.1875 43.0625V46.375V49.6875C23.1875 50.1455 23.5585 50.5156 24.0156 50.5156H47.2031C49.4863 50.5156 51.3438 48.6581 51.3438 46.375V43.0625C51.3438 42.6045 50.9727 42.2344 50.5156 42.2344ZM49.6875 46.375C49.6875 47.7447 48.5728 48.8594 47.2031 48.8594H24.8438V43.8906H49.6875V46.375Z" fill="#F8AF5E"/>
</svg>
