<svg class="grid4_svg" viewBox="0 0 47 47" fill="none" xmlns="http://www.w3.org/2000/svg">
<path d="M42.4565 42.9797L39.341 46.095C38.7845 46.6487 37.155 46.9987 37.1063 46.9987C27.2436 47.0818 17.7483 43.2094 10.7702 36.23C3.77211 29.2336 -0.104922 19.7013 0.00266925 9.81049C0.00266925 9.80471 0.359867 8.22131 0.914988 7.67053L4.03044 4.55238C5.17364 3.4107 7.36236 2.89435 8.89571 3.40492L9.55264 3.62578C11.086 4.13636 12.6881 5.82881 13.1127 7.38642L14.6818 13.1436C15.1078 14.7042 14.5355 16.9244 13.3938 18.066L11.3111 20.1486C13.3537 27.7188 19.2903 33.6538 26.8566 35.6992L28.9393 33.6165C30.0811 32.4747 32.3072 31.9039 33.8678 32.3285L39.6254 33.9005C41.1802 34.3222 42.8727 35.9228 43.3863 37.4574L43.6043 38.1143C44.1145 39.6494 43.5982 41.8381 42.4565 42.9797ZM26.4377 23.4993H29.3752C29.3752 20.2549 26.7447 17.6245 23.5002 17.6245V20.5619C25.1194 20.5619 26.4377 21.8814 26.4377 23.4993ZM38.1879 23.4993C38.1879 15.387 31.6128 8.8122 23.5002 8.8122V11.7497C29.9805 11.7497 35.2503 17.0221 35.2503 23.4993H38.1879ZM23.5002 0V2.9374C34.8372 2.9374 44.0629 12.1627 44.0629 23.4993H47.0005C47.0005 10.5219 36.4782 0 23.5002 0Z" fill="#2D4366"/>
</svg>
