<svg class="grid4_svg" viewBox="0 0 53 61" fill="none" xmlns="http://www.w3.org/2000/svg">
<g clip-path="url(#clip0_1_2539)">
<path d="M28.1334 0C29.2922 0.197545 30.4678 0.327636 31.6073 0.604682C36.3894 1.77309 40.3547 4.18218 43.1155 8.33305C44.3731 10.2266 45.1175 12.3201 45.3343 14.5822C45.3704 14.958 45.4861 15.1484 45.8595 15.2929C47.8976 16.0807 49.1431 17.8827 49.1624 20.0605C49.184 22.3732 49.2226 24.6884 49.1527 26.9987C49.0829 29.2319 48.0156 30.8749 45.8932 31.7398C45.5222 31.894 45.0982 31.9494 44.6911 31.9807C44.1828 32.0216 43.6672 31.9951 43.1565 31.9927C41.2654 31.9807 40.6125 31.5663 39.7621 29.7836C38.3239 33.749 36.3171 37.2735 33.0142 39.9403C33.6936 41.5809 34.6042 43.0505 35.9846 44.1948C36.6206 44.7224 37.3458 45.0211 38.1624 45.1753C42.176 45.9341 46.098 46.97 49.7285 48.9166C51.1788 49.6947 52.14 50.8101 52.4002 52.429C52.6363 53.8962 52.788 55.3754 52.9278 56.8545C52.9952 57.5556 52.9519 58.2663 52.9519 58.9721C52.9519 59.8972 52.6387 60.2152 51.7232 60.2176C50.5018 60.22 49.2804 60.2176 48.059 60.2176C32.4963 60.2176 16.9335 60.2152 1.37081 60.2273C0.795032 60.2297 0.332487 60.1165 0.00244141 59.6298C0.00244141 58.4156 0.00244141 57.199 0.00244141 55.9849C0.120487 55.0742 0.236123 54.1636 0.356578 53.2554C0.636032 51.1691 1.59967 49.5719 3.60885 48.7046C4.11235 48.4878 4.59176 48.2107 5.09526 47.9915C8.11867 46.6785 11.277 45.7896 14.5196 45.2379C15.9314 44.997 16.9962 44.308 17.9068 43.2793C18.7885 42.2868 19.4414 41.1593 19.9401 39.9186C19.663 39.6898 19.386 39.4754 19.121 39.2417C18.5163 38.7069 17.9984 37.9432 17.2925 37.6782C16.5698 37.4084 15.6615 37.6155 14.8352 37.618C12.1563 37.6204 10.4579 36.3195 9.80262 33.7393C9.66049 33.1756 9.57376 32.5974 9.47258 32.0891C8.67517 31.9903 7.87294 32.0265 7.1719 31.7807C5.0519 31.0411 3.78953 29.162 3.78231 26.9047C3.77267 24.71 3.78471 22.5178 3.78231 20.3231C3.7799 17.9188 4.93144 16.1819 7.17912 15.2664C7.48508 15.1411 7.5694 14.987 7.59831 14.6762C7.76212 12.8645 8.25358 11.1348 9.13049 9.53518C11.7998 4.66641 16.0566 1.91523 21.3494 0.604682C22.4865 0.320409 23.6645 0.197545 24.8233 0C25.9267 0 27.03 0 28.1334 0ZM51.1137 58.312C50.986 56.775 50.8367 55.3151 50.7524 53.8528C50.6464 52.0026 49.6755 50.8728 48.0108 50.1187C45.1464 48.8226 42.1688 47.9048 39.0972 47.2832C37.5505 46.9701 36.0063 46.7171 34.7488 45.6306C32.9444 44.0743 31.7759 42.1013 30.9063 39.9307C30.7135 39.4465 30.9737 39.0995 31.3568 38.7695C32.2337 38.0179 33.1419 37.2831 33.9104 36.4279C36.1051 33.9899 37.3915 31.0387 38.4274 27.984C39.6416 24.4017 39.909 20.6989 39.4465 16.9576C39.1598 14.628 38.3455 12.4743 36.9193 10.5831C32.5493 4.78927 24.1704 4.43514 19.1475 7.71391C15.3315 10.2049 13.6692 13.8956 13.3584 18.2874C13.0477 22.6864 13.7824 26.9216 15.6736 30.9183C16.3915 32.4336 17.3045 33.8598 18.1453 35.3173C18.2441 35.4859 18.4513 35.7051 18.6103 35.71C19.9594 35.7413 21.3109 35.7268 22.6455 35.7268C22.9635 34.3633 23.5585 33.8815 24.8859 33.8694C25.3581 33.8646 25.8327 33.867 26.3049 33.8718C27.5143 33.879 28.3647 34.65 28.3671 35.7389C28.3695 36.8374 27.5359 37.6276 26.329 37.6324C24.5174 37.6396 22.7033 37.6252 20.8917 37.618C20.6917 37.618 20.4942 37.618 20.2942 37.618C20.7182 38.1118 21.1615 38.4635 21.6216 38.7984C22.0601 39.1164 22.2167 39.5067 22.0071 40.0222C21.2313 41.9278 20.2316 43.6913 18.7404 45.144C17.7623 46.098 16.6252 46.7412 15.264 47.0182C13.6475 47.3459 12.0286 47.6928 10.4362 48.1216C8.17408 48.7311 5.9794 49.5237 3.92926 50.6873C3.05476 51.1835 2.53681 51.8822 2.38503 52.8482C2.23808 53.795 2.08631 54.7466 2.01885 55.7006C1.95621 56.5679 2.00681 57.44 2.00681 58.312C18.326 58.312 34.65 58.312 51.1137 58.312ZM43.46 14.9629C43.4649 14.9315 43.4769 14.893 43.4745 14.8545C43.4673 14.7557 43.4552 14.6593 43.4432 14.563C42.9614 10.6964 41.1039 7.57418 38.0059 5.28073C32.1686 0.956409 25.7508 0.342091 19.0535 2.90777C14.934 4.48573 11.8889 7.31882 10.2459 11.4914C9.80021 12.6212 9.54726 13.7945 9.46776 15.0689C9.91585 15.0689 10.3134 15.0279 10.6964 15.0809C11.0722 15.1315 11.436 15.276 11.8142 15.3845C13.7054 8.32823 18.2152 4.17255 25.5773 3.84009C33.7442 3.47391 38.9454 7.54527 41.128 15.276C41.9134 15.17 42.6626 15.0713 43.46 14.9629ZM11.3517 23.5633C11.3517 23.5633 11.3517 23.5633 11.3541 23.5633C11.3541 21.8191 11.3565 20.075 11.3541 18.3332C11.3517 17.2949 10.9831 16.9383 9.92308 16.9383C9.54967 16.9383 9.16903 16.9865 8.80285 16.9335C7.32608 16.7215 5.74571 18.1067 5.69994 19.8774C5.63971 22.2865 5.65658 24.698 5.69512 27.1071C5.71681 28.4923 6.59371 29.7041 7.8609 30.0221C8.54749 30.1931 9.30635 30.1016 10.0315 30.1064C10.9686 30.116 11.3444 29.7426 11.3493 28.7959C11.3565 27.0517 11.3517 25.3075 11.3517 23.5633ZM41.5978 23.5224C41.5978 23.5224 41.5978 23.5224 41.6002 23.5224C41.6002 25.3051 41.6002 27.0878 41.5978 28.8705C41.5978 29.4078 41.7713 29.9739 42.3061 30.0197C43.289 30.1016 44.3442 30.1811 45.2693 29.9161C46.5846 29.5379 47.223 28.3984 47.2568 27.0661C47.3146 24.698 47.3049 22.325 47.2616 19.9545C47.2303 18.2609 45.7776 16.707 44.1153 16.9263C43.7274 16.9769 43.3299 16.9311 42.9349 16.9311C41.9736 16.9335 41.5978 17.3117 41.5978 18.2922C41.5954 20.034 41.5978 21.7782 41.5978 23.5224ZM13.1729 30.0365C12.8212 30.4557 12.4406 31.07 11.9058 31.4892C11.501 31.8048 11.383 32.0578 11.4625 32.5324C11.8985 35.0956 13.0983 36.1123 15.8952 35.6497C14.9725 33.7465 14.0354 31.8169 13.1729 30.0365Z" fill="#2D4366"/>
</g>
<defs>
<clipPath id="clip0_1_2539">
<rect width="53" height="60.2273" fill="white"/>
</clipPath>
</defs>
</svg>
