<svg class="grid4_svg" viewBox="0 0 54 54" fill="none" xmlns="http://www.w3.org/2000/svg">
<path d="M52 27.1948C52 22.192 50.4458 17.5452 47.7974 13.7027C48.1658 12.8376 48.0569 11.8066 47.4095 11.0365C42.5855 5.29406 35.5114 2 28 2C20.5172 2 13.4592 5.27274 8.63589 10.9797C7.98659 11.7485 7.87438 12.7808 8.24151 13.6471C5.56973 17.5006 4 22.1675 4 27.1948C4 31.0974 4.96973 34.9361 6.79049 38.3632C6.11849 39.1669 5.89341 40.2994 6.32216 41.3317L9.05297 47.8972C9.3507 48.613 9.91178 49.1718 10.6337 49.4696C10.9957 49.6182 11.3751 49.6931 11.7539 49.6931C12.1315 49.6931 12.509 49.6195 12.8677 49.4709L13.9263 49.0342C14.4698 49.6356 15.2476 49.9981 16.0954 49.9981C16.4787 49.9981 16.8523 49.9244 17.2078 49.7778L19.0052 49.0361C19.7239 48.7403 20.2843 48.1814 20.5834 47.4624C20.8824 46.7434 20.8837 45.954 20.5859 45.2382L16.3658 35.0918C15.9131 34.0013 14.8525 33.2978 13.6649 33.2978C13.2815 33.2978 12.9072 33.3721 12.5518 33.5187L10.7537 34.2603C9.64324 34.7184 8.968 35.7856 8.95373 36.9136C7.41189 33.9192 6.59459 30.5838 6.59459 27.1948C6.59459 22.7528 7.96713 18.6247 10.3107 15.206C11.1494 15.3061 12.0212 15.0005 12.6069 14.308C16.4411 9.77034 22.0519 7.16817 28 7.16817C33.9708 7.16817 39.5946 9.78714 43.4307 14.3526C43.9438 14.9637 44.68 15.279 45.4214 15.279C45.5219 15.279 45.6225 15.2654 45.723 15.2538C48.0458 18.6622 49.4054 22.7728 49.4054 27.1948C49.4054 30.5851 48.5875 33.9212 47.0463 36.9161C47.0326 35.7882 46.3574 34.7203 45.2463 34.2616L43.4482 33.52C43.0928 33.3734 42.7185 33.2991 42.3351 33.2991C41.1475 33.2991 40.0869 34.0032 39.6342 35.0924L35.4141 45.2401C34.7985 46.7208 35.5081 48.4244 36.9942 49.0381L38.7916 49.7791C39.147 49.9257 39.5213 50 39.9053 50C40.7531 50 41.5308 49.6369 42.0744 49.0355L43.1323 49.4722C43.491 49.6201 43.8685 49.6944 44.2461 49.6944C44.6249 49.6944 45.005 49.6201 45.3663 49.4709C46.0882 49.1731 46.6499 48.6149 46.947 47.8991L49.6778 41.333C50.1072 40.3013 49.8815 39.1695 49.2102 38.3652C51.0296 34.9374 52 31.0981 52 27.1948ZM11.6268 47.0813C11.5801 47.0625 11.4938 47.0141 11.451 46.9081L8.72022 40.3426C8.65276 40.1805 8.73384 39.9867 8.896 39.9201L9.79438 39.55L12.7736 46.7124L11.8746 47.0832C11.7689 47.1271 11.6735 47.1007 11.6268 47.0813ZM11.7455 36.6474L13.5436 35.9058C13.5825 35.8903 13.6227 35.8819 13.6636 35.8819C13.7738 35.8819 13.9107 35.9432 13.9678 36.0808L18.1872 46.2272C18.2307 46.3325 18.2048 46.4275 18.1853 46.474C18.1665 46.5205 18.1178 46.6058 18.0115 46.6491L16.2141 47.3907C16.0714 47.4489 15.8683 47.4043 15.7898 47.2156L11.5704 37.0705C11.5023 36.9077 11.5834 36.7139 11.7455 36.6474ZM39.7846 47.392L37.9872 46.651C37.8251 46.5838 37.744 46.3907 37.8115 46.2292L42.0322 36.0815C42.0886 35.9445 42.2255 35.8832 42.3358 35.8832C42.376 35.8832 42.4169 35.8915 42.4558 35.9071L44.2538 36.6487C44.416 36.7159 44.4964 36.909 44.4296 37.0705L40.2076 47.2176C40.1304 47.4056 39.9293 47.4508 39.7846 47.392ZM47.2798 40.3439L44.5483 46.9101C44.5055 47.0147 44.4199 47.0632 44.3725 47.0826C44.3265 47.1026 44.2324 47.1284 44.1248 47.0845L43.2257 46.7137L46.205 39.5513L47.1033 39.9221C47.2662 39.9893 47.3466 40.1824 47.2798 40.3439Z" fill="#2D4366"/>
</svg>
