<svg class="grid3_svg" viewBox="0 0 54 54" fill="none" xmlns="http://www.w3.org/2000/svg">
<path d="M27 4.5C39.4268 4.5 49.5 14.5733 49.5 27C49.5 39.4268 39.4268 49.5 27 49.5C14.5733 49.5 4.5 39.4268 4.5 27C4.5 14.5733 14.5733 4.5 27 4.5ZM27 7.3125C16.1269 7.3125 7.3125 16.1269 7.3125 27C7.3125 37.8731 16.1269 46.6875 27 46.6875C37.8731 46.6875 46.6875 37.8731 46.6875 27C46.6875 16.1269 37.8731 7.3125 27 7.3125ZM27.2812 36C27.7288 36 28.158 36.1778 28.4745 36.4943C28.791 36.8107 28.9688 37.2399 28.9688 37.6875C28.9688 38.1351 28.791 38.5643 28.4745 38.8807C28.158 39.1972 27.7288 39.375 27.2812 39.375C26.8337 39.375 26.4045 39.1972 26.088 38.8807C25.7715 38.5643 25.5938 38.1351 25.5938 37.6875C25.5938 37.2399 25.7715 36.8107 26.088 36.4943C26.4045 36.1778 26.8337 36 27.2812 36ZM27.2812 14.625C31.0669 14.625 34.3125 17.8673 34.3125 21.6551C34.3148 24.0401 33.4474 25.5589 31.2998 27.8741L30.1579 29.097C29.007 30.3784 28.5514 31.1906 28.5086 32.1514L28.5052 32.3336L28.4985 32.4776L28.4782 32.6171C28.4104 32.9586 28.2183 33.2628 27.939 33.4708C27.6598 33.6789 27.3133 33.7759 26.9666 33.7431C26.62 33.7103 26.2978 33.5501 26.0625 33.2935C25.8272 33.0369 25.6954 32.7021 25.6927 32.3539C25.6781 30.3413 26.4544 28.9654 28.2892 26.9708L29.4446 25.7355C30.9724 24.057 31.5011 23.0659 31.5 21.6562C31.5 19.4209 29.5144 17.4375 27.2812 17.4375C25.1213 17.4375 23.1908 19.2983 23.0693 21.4414L23.0557 21.8003C23.0204 22.1601 22.8478 22.4926 22.5737 22.7285C22.2997 22.9644 21.9453 23.0857 21.5842 23.0672C21.223 23.0487 20.8829 22.8917 20.6345 22.629C20.386 22.3662 20.2483 22.0179 20.25 21.6562C20.25 17.8706 23.4967 14.625 27.2812 14.625Z" fill="currentColor"/>
</svg>
