<svg class="grid4_svg" viewBox="0 0 54 54" fill="none" xmlns="http://www.w3.org/2000/svg">
<path d="M50.0852 43.3351H46.8452V9.45011C46.8452 9.12787 46.7172 8.81883 46.4893 8.59097C46.2615 8.36312 45.9524 8.23511 45.6302 8.23511H36.4502C36.128 8.23511 35.8189 8.36312 35.5911 8.59097C35.3632 8.81883 35.2352 9.12787 35.2352 9.45011V43.3351H32.6027V22.6126C32.6027 22.2904 32.4747 21.9813 32.2468 21.7535C32.019 21.5256 31.7099 21.3976 31.3877 21.3976H22.1807C21.8585 21.3976 21.5494 21.5256 21.3216 21.7535C21.0937 21.9813 20.9657 22.2904 20.9657 22.6126V43.3351H18.3872V32.5351C18.3837 32.214 18.2545 31.907 18.0274 31.6799C17.8003 31.4528 17.4933 31.3236 17.1722 31.3201H7.95169C7.63055 31.3236 7.32354 31.4528 7.09644 31.6799C6.86934 31.907 6.7402 32.214 6.73669 32.5351V43.3351H3.9152C3.59296 43.3351 3.28392 43.4631 3.05606 43.691C2.8282 43.9188 2.7002 44.2279 2.7002 44.5501C2.7002 44.8723 2.8282 45.1814 3.05606 45.4092C3.28392 45.6371 3.59296 45.7651 3.9152 45.7651H50.0852C50.4074 45.7651 50.7165 45.6371 50.9443 45.4092C51.1722 45.1814 51.3002 44.8723 51.3002 44.5501C51.3002 44.2279 51.1722 43.9188 50.9443 43.691C50.7165 43.4631 50.4074 43.3351 50.0852 43.3351ZM9.16669 43.3351V33.8851H15.9167V43.3351H9.16669ZM23.3957 43.3351V23.8276H30.1457V43.3351H23.3957ZM37.6382 43.3351V10.6651H44.3882V43.3351H37.6382Z" fill="#2D4366"/>
</svg>
