<svg class="grid4_svg" viewBox="0 0 53 53" fill="none" xmlns="http://www.w3.org/2000/svg">
<path d="M21.4226 40.7276C25.2242 40.7276 29.0198 39.6048 32.2847 37.3803L45.4999 50.5959C45.6897 50.7858 45.9394 50.88 46.1875 50.88C46.4357 50.88 46.6854 50.7858 46.8752 50.5959L50.5961 46.8749C50.777 46.6925 50.8801 46.4459 50.8801 46.1887C50.8801 45.9316 50.777 45.6834 50.5961 45.5025L37.3794 32.2869C42.4966 24.7731 41.7371 14.4263 35.0802 7.76767C27.5503 0.237437 15.2964 0.237437 7.76645 7.76767C0.238006 15.2979 0.238006 27.5508 7.76645 35.081C11.5307 38.8454 16.4774 40.7276 21.4226 40.7276ZM48.5346 46.1872L46.1875 48.5344L33.8469 36.1933C34.2685 35.839 34.6841 35.4757 35.0802 35.0795C35.4764 34.6833 35.8397 34.2677 36.1925 33.8476L48.5346 46.1872ZM9.14178 9.14006C12.5278 5.75393 16.9752 4.06161 21.4241 4.06161C25.873 4.06161 30.3204 5.75542 33.7064 9.14006C40.4784 15.9138 40.4784 26.9334 33.7064 33.7056C26.9359 40.4779 15.9138 40.4764 9.14178 33.7056C2.36827 26.9334 2.36827 15.9138 9.14178 9.14006ZM21.4226 35.3651C25.145 35.3651 28.6476 33.9149 31.2816 31.2823C36.7172 25.8465 36.7172 17.0022 31.2816 11.5664C25.8446 6.13066 17.0006 6.13216 11.5651 11.5664C6.12951 17.0022 6.12951 25.8465 11.5651 31.2823C14.1976 33.9149 17.6987 35.3651 21.4226 35.3651ZM12.9404 12.9388C15.2785 10.6007 18.3505 9.43009 21.4241 9.43009C24.4962 9.43009 27.5682 10.5992 29.9078 12.9388C34.5854 17.6166 34.5854 25.2291 29.9078 29.9069C27.6415 32.1733 24.6292 33.4216 21.4241 33.4216C18.2175 33.4216 15.2067 32.1733 12.9404 29.9069C8.26277 25.2291 8.26277 17.6181 12.9404 12.9388ZM13.3799 19.9832C13.3799 15.5924 16.9513 12.0224 21.3404 12.0224C21.8771 12.0224 22.3121 12.4574 22.3121 12.9941C22.3121 13.5308 21.8771 13.9659 21.3404 13.9659C18.0216 13.9659 15.3248 16.6658 15.3248 19.9832C15.3248 20.5199 14.8898 20.9549 14.3531 20.9549C13.8164 20.9549 13.3799 20.5184 13.3799 19.9832Z" fill="#2D4366"/>
</svg>
