<svg class="grid4_svg" viewBox="0 0 52 52" fill="none" xmlns="http://www.w3.org/2000/svg">
<path d="M21.1064 41.0317V50.1364C21.1064 50.2502 21.2203 50.364 21.4479 50.364L26.114 48.4293L30.7801 50.364C30.8939 50.4778 31.1216 50.364 31.1216 50.1364V41.0317" stroke="#2D4366" stroke-width="2" stroke-miterlimit="10"/>
<path d="M36.6981 41.601L26.5692 36.4797C26.3416 36.3658 26.114 36.3658 25.8863 36.4797L15.8712 41.9424C15.416 42.1701 14.8469 41.8286 14.8469 41.2596L16.6679 29.9926C16.6679 29.765 16.6679 29.5374 16.4403 29.4235L8.24608 21.5708C7.79084 21.2294 8.01846 20.5465 8.5875 20.4327L19.8545 18.6118C20.0821 18.6118 20.3097 18.3842 20.3097 18.2703L25.2035 8.02761C25.4311 7.57238 26.114 7.45857 26.4554 8.02761L31.5767 18.1565C31.6906 18.3842 31.9182 18.498 32.1458 18.498L43.4128 19.9775C43.9818 20.0913 44.2094 20.7741 43.7542 21.1156L35.6738 29.1959C35.56 29.3097 35.4462 29.5374 35.4462 29.765L37.4948 40.9182C37.7224 41.4872 37.1533 41.9424 36.6981 41.601Z" stroke="#F8AF5E" stroke-width="2" stroke-miterlimit="10"/>
<path d="M43.2988 8.71045C47.7373 13.149 50.4687 19.2946 50.4687 26.0093C50.4687 32.724 47.7373 38.8696 43.2988 43.3081" stroke="#2D4366" stroke-width="2" stroke-miterlimit="10"/>
<path d="M8.70117 8.71019C13.1397 4.27168 19.2853 1.54028 26 1.54028C32.7147 1.54028 38.8603 4.27168 43.2988 8.71019" stroke="#2D4366" stroke-width="2" stroke-miterlimit="10" stroke-dasharray="2 2"/>
<path d="M8.70116 43.4216C4.26264 38.9831 1.53125 32.8375 1.53125 26.1228C1.53125 19.4081 4.26264 13.2625 8.70116 8.82397" stroke="#2D4366" stroke-width="2" stroke-miterlimit="10"/>
</svg>
