<svg class="grid3_svg" viewBox="0 0 54 54" fill="none" xmlns="http://www.w3.org/2000/svg">
<path d="M15.5154 25.4078H16.3088V16.0885C16.3107 16.0653 16.3161 16.043 16.3161 16.0191V14.643C16.3161 12.1898 17.0733 10.2013 18.5669 8.73238C21.6562 5.69279 26.9331 5.73418 27.0222 5.74664C27.0849 5.74278 32.3176 5.6668 35.4208 8.70403C36.9245 10.1758 37.6873 12.1735 37.6873 14.643V16.098C37.6873 16.1134 37.691 16.125 37.691 16.1393V25.4075H38.4845C40.4372 25.4075 42.0199 23.8248 42.0199 21.8725V18.475C42.0199 16.9043 40.9944 15.5747 39.5764 15.1146V14.6433C39.5764 11.6469 38.6224 9.19465 36.7426 7.3543C33.0777 3.76742 27.2237 3.8603 27.019 3.85753C26.773 3.85517 20.9133 3.78308 17.2502 7.37667C15.377 9.21517 14.4266 11.66 14.4266 14.6429V15.1123C13.0068 15.5724 11.9803 16.903 11.9803 18.4745V21.8721C11.9804 23.8249 13.5635 25.4076 15.5153 25.4076L15.5154 25.4078ZM46.998 46.4238C46.5625 38.1515 39.1276 34.7293 39.1276 34.7293C37.3513 33.8988 34.1307 32.2729 32.0192 31.1981C34.7245 28.2383 35.5236 23.4127 35.648 22.7261C36.2125 19.6192 35.9284 15.7737 35.9284 15.7737C35.4122 8.29575 27.8622 8.1783 27.0716 8.18613C27.0279 8.18613 26.9995 8.18659 26.9995 8.18659C26.9995 8.18659 26.9752 8.18613 26.9396 8.18659C26.2228 8.17888 18.5897 8.25293 18.0707 15.7737C18.0707 15.7737 17.7865 19.6187 18.3511 22.7261C18.3878 22.9263 18.4835 23.4837 18.665 24.2377C20.0871 26.1046 22.2826 27.0201 24.0845 27.4681C24.311 27.2479 24.6198 27.111 24.9619 27.111H28.2462C28.9412 27.111 29.5039 27.6741 29.5039 28.3692C29.5039 29.0646 28.9412 29.6283 28.2462 29.6283H24.9619C24.4433 29.6283 24 29.3154 23.8064 28.8691C22.4623 28.5424 20.907 27.9731 19.5188 26.994C20.0726 28.4318 20.8619 29.9741 21.9808 31.1984C19.8693 32.2732 16.6501 33.8986 14.8724 34.7292C14.8724 34.7292 7.43849 38.1513 7.00203 46.4237C7.00203 46.4237 6.87293 47.7994 9.47983 48.3202C9.47983 48.3202 17.4662 50.1429 27.0005 50.1429C36.5356 50.1429 44.522 48.3202 44.522 48.3202C47.1284 47.7994 46.998 46.4237 46.998 46.4237L46.998 46.4238Z" fill="currentColor"/>
</svg>
