<svg class="grid4_svg" viewBox="0 0 54 54" fill="none" xmlns="http://www.w3.org/2000/svg">
<path d="M27.7126 4C27.1818 4 26.7084 4.24422 26.3996 4.62591L26.0983 4.84624C20.2817 3.0533 13.6493 4.37092 9.03206 8.79911C4.93386 12.7295 3.39079 18.1825 4.40288 23.2594C4.34528 23.3102 4.28852 23.3624 4.23268 23.4159L1.60951 25.9317C-0.536503 27.9898 -0.536503 31.3266 1.60951 33.3849C2.94945 34.67 4.80923 35.1526 6.53969 34.8328C6.75087 35.8015 7.24845 36.724 8.03241 37.4759C9.06731 38.4682 10.4123 38.9823 11.7683 39.0175C11.8048 40.3181 12.3407 41.6083 13.3758 42.6012C14.4107 43.5938 15.7557 44.1075 17.1117 44.1428C17.1483 45.4434 17.6842 46.7336 18.7192 47.7262C20.7518 49.6757 23.9808 49.7787 26.1398 48.0349L27.6135 49.4482C29.7705 51.5173 33.2678 51.5173 35.4251 49.4482C36.456 48.4593 36.9943 47.1775 37.0394 45.8826C38.3865 45.8413 39.7205 45.3276 40.7491 44.3414C41.78 43.3529 42.3156 42.0697 42.3563 40.7751C43.6879 40.7238 45.0033 40.2107 46.0202 39.2356C46.8374 38.4514 47.3437 37.4823 47.5388 36.4686C49.2468 36.7595 51.0708 36.2723 52.3906 35.0066C54.5365 32.9486 54.5365 29.6115 52.3906 27.5536L49.9677 25.2298L50.4595 23.3823C51.4638 19.61 50.9572 15.6153 49.0473 12.1897C46.2295 7.1355 40.7629 4.01309 34.8494 4.01309H30.7064C30.5281 4.0044 30.3488 4 30.1685 4H27.7126ZM35.9781 16.469L44.085 24.2438L44.0947 24.2532L49.9634 29.8813C50.7688 30.6538 50.7688 31.9061 49.9634 32.6788C49.1579 33.4513 47.8519 33.4513 47.0464 32.6788L42.5933 28.4076C42.2711 28.0988 41.8346 27.9257 41.3793 27.9257C40.9243 27.9257 40.4875 28.0988 40.1657 28.4076L40.1212 28.4505C39.4509 29.0934 39.4509 30.1357 40.1212 30.7786L43.5929 34.108C44.3991 34.8811 44.3991 36.1344 43.5929 36.9075C42.8575 37.6129 41.7025 37.6753 40.895 37.0921C40.2092 36.5965 39.247 36.6636 38.6427 37.2488C38.0384 37.834 37.9784 38.7574 38.5018 39.4104C39.1233 40.1852 39.0623 41.3033 38.3218 42.0133C37.5763 42.7284 36.3994 42.7824 35.5909 42.1734C34.9091 41.6596 33.9351 41.7143 33.3204 42.3002C32.7056 42.8864 32.6429 43.82 33.1744 44.477C33.8097 45.2622 33.7497 46.399 32.9975 47.1205C32.1812 47.9037 30.8574 47.9037 30.0408 47.1205L28.5814 45.7209L29.1136 45.2105C31.2598 43.1522 31.2598 39.8154 29.1136 37.7571C28.0789 36.7649 26.7338 36.2508 25.3778 36.2156C25.3412 34.915 24.8054 33.6248 23.7704 32.6322C22.7355 31.6396 21.3905 31.1259 20.0345 31.0907C19.9979 29.7897 19.4621 28.4995 18.427 27.5069C17.087 26.2218 15.2272 25.7391 13.4968 26.0588C13.2856 25.0903 12.788 24.1678 12.0041 23.4159C10.8116 22.2723 9.20738 21.7641 7.64901 21.8914C7.12696 18.0687 8.3971 14.0639 11.4594 11.127C14.4828 8.22739 18.5917 7.00322 22.5317 7.45448L17.6307 11.0385C14.9797 12.9772 14.4797 16.6573 16.5182 19.2276C18.5282 21.762 22.2535 22.2637 24.8675 20.3521L30.1776 16.469H35.9781ZM19.6259 13.7429L28.3603 7.35555H30.1685C30.3046 7.35555 30.4398 7.35914 30.5739 7.36626C30.6036 7.36787 30.6336 7.36864 30.6636 7.36864H34.8494C39.583 7.36864 43.8982 9.86819 46.1007 13.8183C47.591 16.491 47.9813 19.5945 47.2018 22.5227L47.1927 22.5573L37.8918 13.6063C37.5753 13.2908 37.1463 13.1134 36.6987 13.1134H29.6252C29.2663 13.1134 28.9168 13.2275 28.6276 13.439L22.8724 17.6476C21.7216 18.4892 20.0481 18.2638 19.1632 17.1481C18.3068 16.0682 18.5121 14.5574 19.6259 13.7429ZM21.1147 42.6321L21.1472 42.6012L23.7704 40.0856L23.8022 40.0547C24.6099 39.3128 25.8917 39.3232 26.6864 40.0852C27.4918 40.8577 27.4918 42.11 26.6864 42.8824L24.0632 45.3984C23.2578 46.1709 21.9519 46.1709 21.1464 45.3984C20.3517 44.636 20.3412 43.4065 21.1147 42.6321ZM21.3748 37.7263L21.3423 37.7571L18.7192 40.2731L18.6873 40.3037C17.8796 41.0456 16.5978 41.0355 15.8031 40.2731C15.0056 39.5084 14.9977 38.2732 15.7793 37.4991L15.8038 37.4759L18.427 34.9599L18.4507 34.9371C19.2579 34.1878 20.5457 34.1956 21.343 34.9603C22.1378 35.7223 22.1483 36.9518 21.3748 37.7263ZM15.999 32.6322L13.3758 35.1482L13.3521 35.171C12.5449 35.9203 11.2571 35.9126 10.4597 35.1479C9.65428 34.3754 9.65428 33.1231 10.4597 32.3507L13.0829 29.8347C13.8883 29.0622 15.1942 29.0622 15.9997 29.8347C16.7971 30.5994 16.805 31.8349 16.0234 32.609L15.999 32.6322ZM9.57676 28.5411L6.95359 31.0568C6.14813 31.8296 4.84226 31.8296 4.0368 31.0568C3.23138 30.2843 3.23138 29.032 4.0368 28.2596L6.66001 25.7438C7.46543 24.9714 8.7713 24.9714 9.57676 25.7438C10.3822 26.5163 10.3822 27.7687 9.57676 28.5411Z" fill="#2D4366"/>
</svg>
