<svg class="grid3_svg" viewBox="0 0 54 54" fill="none" xmlns="http://www.w3.org/2000/svg">
<path d="M25.2825 44.5191C23.5634 42.5007 20.6938 40.3419 17.9147 38.976C15.1086 37.5967 12.4432 36.8307 9.41695 36.5345C8.82029 36.4766 8.32561 36.4226 8.31771 36.4149C8.30999 36.4149 8.32542 30.1852 8.35628 22.5886L8.40719 8.77693L8.95815 8.83093C12.3412 9.1665 16.117 10.4448 18.974 12.2264C21.4361 13.7615 23.9786 16.1321 25.5995 18.4036L26.0075 18.9752V32.0949C26.0075 39.3105 25.9766 45.213 25.9396 45.2119C25.901 45.2107 25.6075 44.8995 25.2842 44.5199L25.2825 44.5191ZM28.0849 32.0617V18.8873L28.8727 17.8347C29.8785 16.4908 31.9017 14.4662 33.2394 13.4653C36.8156 10.7888 40.6948 9.27643 45.1483 8.82128L45.7132 8.76343V22.5944V36.4257L45.0578 36.4874C38.8567 37.0644 33.4806 39.6229 29.2755 43.9977L28.0849 45.2366V32.0621V32.0617ZM31.927 44.3409C34.3609 42.0575 37.5829 40.2431 40.8195 39.3324C42.5132 38.8561 44.7157 38.5236 46.1778 38.5236C46.9443 38.5236 47.3695 38.3577 47.6094 37.9639C47.7899 37.6669 47.7918 37.5393 47.7922 26.3319L47.7925 14.9989L48.1316 15.0606C48.3179 15.0992 48.8468 15.2457 49.3068 15.3923L50.143 15.6585V29.8022C50.143 37.5813 50.1121 43.946 50.0739 43.946C50.0354 43.946 49.4765 43.8264 48.8309 43.6798C46.2797 43.1051 44.1786 42.9076 41.4193 42.9821C38.0724 43.0746 35.4713 43.5414 32.3791 44.6098L31.2039 45.0159L31.9271 44.3375L31.927 44.3409ZM21.6212 44.5608C20.3371 44.101 18.2163 43.5591 16.7847 43.3254C14.8381 43.0091 13.4951 42.925 11.1093 42.9782C8.73875 43.0284 7.3049 43.1942 5.34886 43.6382C4.80192 43.7616 4.24256 43.8889 4.10582 43.9159L3.85742 43.9699L3.85785 29.7883L3.85831 15.6064L4.92014 15.2978C5.50411 15.1281 6.03281 14.97 6.09495 14.9507C6.18482 14.9121 6.20796 17.2225 6.20796 26.271C6.20796 38.6358 6.18096 37.9466 6.70854 38.2933C6.89214 38.4129 7.27362 38.4669 8.36299 38.5325C12.6925 38.7793 16.8006 40.2331 20.1544 42.7067C20.8776 43.2401 22.6132 44.7051 22.7127 44.8659C22.7821 44.9778 22.7359 44.9662 21.6215 44.565L21.6212 44.5608Z" fill="currentColor"/>
</svg>
