<svg class="grid4_svg" viewBox="0 0 53 53" fill="none" xmlns="http://www.w3.org/2000/svg">
<path d="M48.0312 6.625V49.6875H8.28125C6.45192 49.6875 4.96875 48.206 4.96875 46.375C4.96875 44.544 6.45192 43.0625 8.28125 43.0625H44.7188V0H8.28125C4.62259 0 1.65625 2.96634 1.65625 6.625V46.375C1.65625 50.0337 4.62259 53 8.28125 53H51.3438V6.625H48.0312ZM8.28125 13.25V9.9375V3.3125H41.4062V39.75H8.28125V13.25ZM34.7812 9.9375H14.9062V6.625H34.7812V9.9375ZM28.1562 16.5625H14.9062V13.25H28.1562V16.5625ZM21.5312 23.1875H14.9062V19.875H21.5312V23.1875Z" fill="currentColor"/>
</svg>
