<svg width="24" height="24" viewBox="0 0 24 24" fill="none" xmlns="http://www.w3.org/2000/svg">
<path d="M13.2857 11.5384L14.727 10.0984C14.9693 9.86405 15.294 9.73422 15.6311 9.73691C15.9682 9.7396 16.2908 9.87459 16.5294 10.1128C16.7679 10.351 16.9034 10.6734 16.9065 11.0105C16.9097 11.3476 16.7803 11.6725 16.5463 11.9151L12.909 15.5524C12.7899 15.6722 12.6482 15.7673 12.4922 15.8322C12.3362 15.8971 12.169 15.9305 12 15.9305C11.831 15.9305 11.6638 15.8971 11.5078 15.8322C11.3518 15.7673 11.2101 15.6722 11.091 15.5524L7.45371 11.9151C7.33434 11.7956 7.23969 11.6537 7.17515 11.4976C7.11061 11.3415 7.07745 11.1742 7.07757 11.0052C7.07769 10.8363 7.11108 10.669 7.17584 10.513C7.2406 10.357 7.33546 10.2152 7.455 10.0959C7.57454 9.97649 7.71642 9.88183 7.87254 9.81729C8.02867 9.75275 8.19597 9.71959 8.36491 9.71971C8.53385 9.71983 8.7011 9.75323 8.85714 9.81799C9.01317 9.88274 9.15491 9.9776 9.27429 10.0971L10.7143 11.5384V4.28571C10.7143 3.94472 10.8497 3.6177 11.0909 3.37658C11.332 3.13546 11.659 3 12 3C12.341 3 12.668 3.13546 12.9091 3.37658C13.1503 3.6177 13.2857 3.94472 13.2857 4.28571V11.5384ZM4.28571 18.4286H19.7143C20.0553 18.4286 20.3823 18.564 20.6234 18.8051C20.8645 19.0463 21 19.3733 21 19.7143C21 20.0553 20.8645 20.3823 20.6234 20.6234C20.3823 20.8645 20.0553 21 19.7143 21H4.28571C3.94472 21 3.6177 20.8645 3.37658 20.6234C3.13546 20.3823 3 20.0553 3 19.7143C3 19.3733 3.13546 19.0463 3.37658 18.8051C3.6177 18.564 3.94472 18.4286 4.28571 18.4286Z" fill="#2D4366"/>
</svg>
