<svg class="grid4_svg" viewBox="0 0 54 54" fill="none" xmlns="http://www.w3.org/2000/svg">
<path d="M54 49.6428H4.35607V0H2.39393V49.6428H0V51.6072H2.39393V54H4.35607V51.6072H54V49.6428Z" fill="#192C4A"/>
<path d="M21.3767 24.8928C20.834 24.8928 20.3945 25.3312 20.3945 25.8739V46.1239C20.3945 46.6666 20.834 47.1061 21.3767 47.1061H25.8745C26.4172 47.1061 26.8567 46.6666 26.8567 46.1239V25.8739C26.8567 25.3312 26.4172 24.8928 25.8745 24.8928H21.3767Z" fill="#F8AF5E"/>
<path d="M10.1256 33.8916C9.58288 33.8916 9.14453 34.3322 9.14453 34.8738V46.1238C9.14453 46.6665 9.58288 47.106 10.1256 47.106H14.6267C15.1672 47.106 15.6078 46.6665 15.6078 46.1238V34.8738C15.6078 34.3322 15.1672 33.8916 14.6267 33.8916H10.1256Z" fill="#192C4A"/>
<path d="M32.6257 33.8916C32.084 33.8916 31.6445 34.3322 31.6445 34.8738V46.1238C31.6445 46.6665 32.084 47.106 32.6257 47.106H37.1256C37.6683 47.106 38.1078 46.6665 38.1078 46.1238V34.8738C38.1078 34.3322 37.6683 33.8916 37.1256 33.8916H32.6257Z" fill="#192C4A"/>
<path d="M43.8748 22.6428C43.3321 22.6428 42.8926 23.0823 42.8926 23.625V46.1239C42.8926 46.6666 43.3321 47.1061 43.8748 47.1061H48.3748C48.9164 47.1061 49.3559 46.6666 49.3559 46.1239V23.625C49.3559 23.0823 48.9164 22.6428 48.3748 22.6428H43.8748Z" fill="#F8AF5E"/>
<path d="M9.26446 31.9954C9.48858 31.9954 9.71271 31.9195 9.89728 31.7635L24.9551 19.0348L33.2267 27.3262C33.4102 27.5119 33.6772 27.5921 33.9222 27.614C34.1837 27.6129 34.4342 27.5097 34.6187 27.324L48.3077 13.5164C48.69 13.1318 48.6856 12.5089 48.3011 12.1277C47.9166 11.7454 47.2937 11.7465 46.9135 12.1332L33.9189 25.2399L25.7066 17.0089C25.3463 16.6464 24.7695 16.6222 24.3784 16.9518L8.62946 30.2639C8.21416 30.6144 8.16362 31.234 8.5141 31.6482C8.70747 31.8778 8.98542 31.9954 9.26446 31.9954Z" fill="#192C4A"/>
</svg>
