<svg width="54" height="54" viewBox="0 0 54 54" fill="none" xmlns="http://www.w3.org/2000/svg">
<path d="M54 49.6428H4.35607V0H2.39393V49.6428H0V51.6072H2.39393V54H4.35607V51.6072H54V49.6428Z" fill="#192C4A"/>
<path d="M45.2648 10.0605L44.0801 9.14722L46.3329 4.26369L47.5173 5.17657L45.2648 10.0605Z" fill="#192C4A"/>
<path d="M46.8159 16.4563L46.2656 14.8213L49.4725 13.0187L50.0228 14.6537L46.8159 16.4563Z" fill="#192C4A"/>
<path d="M49.4728 25.3184L46.2656 23.5158L46.8159 21.8808L50.0224 23.6834L49.4728 25.3184Z" fill="#192C4A"/>
<path d="M46.3326 34.0742L44.0801 29.1893L45.2644 28.2769L47.5173 33.1609L46.3326 34.0742Z" fill="#192C4A"/>
<path d="M23.277 25.1896C23.277 25.1896 20.7638 25.1067 18.2148 25.1063C15.772 24.9975 13.334 25.2297 13.334 25.2297V13.9191C13.334 13.9191 15.2655 13.9828 17.7149 13.9828C20.0729 13.9654 23.277 13.8834 23.277 13.8834V25.1896Z" fill="#F8AF5E"/>
<path d="M13.454 14.0761V25.0649C13.8705 25.0297 15.2559 24.9241 16.8378 24.9241C17.3198 24.9241 17.7856 24.933 18.2204 24.953C20.4229 24.953 22.6257 25.0159 23.1595 25.0328V14.0395C22.5526 14.0547 19.7912 14.1211 17.717 14.1358C15.6396 14.1358 13.9157 14.0899 13.454 14.0761ZM13.2168 25.3948V13.7618L13.3385 13.7658C13.3575 13.7663 15.2966 13.8291 17.7163 13.8291C20.046 13.8118 23.2436 13.7306 23.2757 13.7293L23.3967 13.7266V25.3475L23.2753 25.3435C23.2501 25.3426 20.7346 25.2602 18.2162 25.2593C17.7797 25.2401 17.3174 25.2307 16.8378 25.2307C14.9597 25.2307 13.3599 25.381 13.344 25.3823L13.2168 25.3948Z" fill="#F05727"/>
<path d="M41.2428 31.9038H39.4785V6.47877H41.2428V31.9038Z" fill="#E6E4E5"/>
<path d="M39.569 31.787H41.1533V6.59644H39.569V31.787ZM41.3336 32.0215H39.3887V6.36153H41.3336V32.0215Z" fill="#E6E4E5"/>
<path d="M21.7667 41.5835H16.3149L14.7402 25.1896L21.7667 25.2957V41.5835Z" fill="#192C4A"/>
<path d="M16.4197 41.4299H21.6474V25.4479L14.8744 25.3449L16.4197 41.4299ZM21.885 41.7366H16.2101L14.6055 25.0342L21.885 25.1439V41.7366Z" fill="#242E3C"/>
<path d="M41.334 16.8387V21.5439C42.3394 21.5439 43.1545 20.4907 43.1545 19.1913C43.1545 17.892 42.3394 16.8387 41.334 16.8387Z" fill="#F8AF5E"/>
<path d="M13.2961 15.088C12.5672 15.088 11.9766 15.8516 11.9766 16.7939V22.3179C11.9766 23.2602 12.5672 24.0247 13.2961 24.0247V15.088Z" fill="#192C4A"/>
<path d="M23.2773 13.8681V25.1881C27.6886 25.3022 34.3992 27.8051 39.3276 31.8252V19.1938V6.5624C34.613 10.7327 27.5334 13.3492 23.2773 13.8681Z" fill="#192C4A"/>
<path d="M23.3374 25.1129C27.3903 25.2386 34.1258 27.5279 39.2697 31.6867V6.70735C34.675 10.7253 27.8072 13.3783 23.3374 13.9377V25.1129ZM39.3883 31.9644L39.2973 31.8895C34.1358 27.6799 27.331 25.3701 23.2767 25.2644L23.2188 25.2631V13.7982L23.2725 13.792C27.7558 13.2441 34.6992 10.5639 39.2956 6.49875L39.3883 6.41717V31.9644Z" fill="#242E3C"/>
</svg>
