<svg width="40" height="40" viewBox="0 0 40 40" fill="none" xmlns="http://www.w3.org/2000/svg">
<path d="M24.59 16.6667C26.2008 16.6667 27.5067 17.9726 27.5067 19.5834V25.0001H27.5V26.6668H12.5V21.6668H12.5032V19.5834C12.5032 17.9726 13.8091 16.6667 15.4199 16.6667H24.59Z" fill="#F8AF5E"/>
<path d="M36.6672 19.5833C36.6672 17.9724 35.3613 16.6666 33.7505 16.6666L28.125 16.665C28.7802 17.4578 29.1738 18.4744 29.1738 19.5833V21.6666H29.1672V26.6666H35.4172C36.1075 26.6666 36.6672 26.1069 36.6672 25.4166V19.5833Z" fill="#192C4A"/>
<path d="M10.834 24.9999H10.8372V19.5833L10.8516 19.2173C10.9279 18.2513 11.3037 17.3696 11.8861 16.665L6.25065 16.6666L6.01143 16.6763C4.5125 16.7979 3.33398 18.0529 3.33398 19.5833V25.4166C3.33398 26.1069 3.89363 26.6666 4.58398 26.6666H10.834V24.9999Z" fill="#192C4A"/>
<path d="M20 5C22.7615 5 25 7.23858 25 10C25 12.7614 22.7615 15 20 15C17.2385 15 15 12.7614 15 10C15 7.23858 17.2385 5 20 5Z" fill="#F8AF5E"/>
<path d="M30.8327 6.66675C33.1338 6.66675 34.9993 8.53223 34.9993 10.8334C34.9993 13.1346 33.1338 15.0001 30.8327 15.0001C28.5315 15.0001 26.666 13.1346 26.666 10.8334C26.666 8.53223 28.5315 6.66675 30.8327 6.66675Z" fill="#192C4A"/>
<path d="M9.16667 6.66675C11.4679 6.66675 13.3333 8.53223 13.3333 10.8334C13.3333 13.1346 11.4679 15.0001 9.16667 15.0001C6.86548 15.0001 5 13.1346 5 10.8334C5 8.53223 6.86548 6.66675 9.16667 6.66675Z" fill="#192C4A"/>
<path d="M3.33398 29.5833C3.33398 28.8929 3.89363 28.3333 4.58398 28.3333H35.4173C36.1077 28.3333 36.6673 28.8929 36.6673 29.5833V30.4166C36.6673 33.8684 33.8692 36.6666 30.4173 36.6666H9.58398C6.1322 36.6666 3.33398 33.8684 3.33398 30.4166V29.5833Z" fill="#192C4A"/>
</svg>
