<svg width="54" height="54" viewBox="0 0 54 54" fill="none" xmlns="http://www.w3.org/2000/svg">
<path d="M54 49.6428H4.35607V0H2.39393V49.6428H0V51.6072H2.39393V54H4.35607V51.6072H54V49.6428Z" fill="#192C4A"/>
<path d="M40.501 18.7796C40.4522 18.6817 40.3875 18.5907 40.3052 18.5144C40.2227 18.4383 40.1304 18.3825 40.034 18.3472L34.9718 16.4865C34.6191 16.3568 34.2414 16.2873 33.8482 16.2909C33.4555 16.2952 33.0795 16.3724 32.7286 16.509L28.8877 18.0075C28.6173 18.1132 28.3489 18.2348 28.0842 18.3731C27.9958 18.4199 27.9089 18.4706 27.8225 18.5202C27.5325 18.3596 27.2298 18.2181 26.9139 18.0977C25.9062 17.7124 24.8745 17.5825 23.8759 17.6697L21.2917 17.8966C21.1793 17.9065 21.0658 17.942 20.9598 18.0057C20.8537 18.0696 20.7661 18.1559 20.6973 18.2555L14.8787 26.727C14.7589 26.901 14.6948 27.1224 14.7144 27.3566C14.7336 27.5908 14.8322 27.7962 14.9777 27.9439L17.5086 30.5091C17.3698 30.769 17.2818 31.0608 17.2615 31.3731C17.225 31.9343 17.4052 32.476 17.7673 32.8988C18.1298 33.3214 18.6312 33.5745 19.1803 33.6112C19.2096 33.6132 19.2393 33.6132 19.269 33.6143C19.044 34.3584 19.2281 35.2035 19.8144 35.771C20.1653 36.1108 20.6152 36.3087 21.0932 36.3404C20.7852 37.1212 20.9518 38.0522 21.5812 38.6613C21.9651 39.0334 22.4671 39.2379 22.9962 39.2379C23.5471 39.2379 24.061 39.0178 24.4491 38.6205C24.5934 39.574 25.368 40.3343 26.3477 40.3998C26.3928 40.403 26.439 40.405 26.4841 40.405C26.7344 40.405 26.9743 40.3567 27.1973 40.2716C27.5616 40.52 27.9959 40.6568 28.4581 40.6377C29.0261 40.6134 29.5356 40.3571 29.9167 39.9562L28.5248 38.5358C28.528 38.5029 28.534 38.4714 28.5353 38.4374C28.5534 38.1584 28.516 37.8884 28.4348 37.6375L31.2835 40.5436C31.643 40.6932 32.0342 40.7682 32.4416 40.7513C33.2569 40.7173 33.9832 40.3235 34.4975 39.7143L34.7826 39.3761C34.809 39.3441 34.8293 39.3081 34.8468 39.2695L30.4607 34.796C30.3476 34.6815 30.3386 34.4909 30.4389 34.371C30.5395 34.2517 30.7137 34.2477 30.8259 34.3622L36.0423 39.6823C36.3266 39.7842 36.6308 39.8339 36.947 39.8206C37.6637 39.7907 38.3032 39.4445 38.7554 38.9078L39.4441 38.0924C39.6021 37.9043 39.6963 37.6505 39.6874 37.3747L35.1099 32.7073C34.9981 32.5925 34.988 32.4015 35.0883 32.2825C35.1896 32.1631 35.3633 32.159 35.4753 32.2735L40.0744 36.9637C40.2631 37.0152 40.4614 37.0404 40.6651 37.032C41.2528 37.0078 41.7755 36.7242 42.1455 36.2848L42.3305 36.0657C42.7008 35.6272 42.919 35.0331 42.8968 34.3871C42.8743 33.7414 42.617 33.1677 42.2179 32.7604L40.9901 31.5085L41.3003 31.8243L44.6201 28.7585C44.7611 28.6288 44.8634 28.4473 44.9008 28.234C44.938 28.021 44.9044 27.8106 44.8179 27.6326L40.501 18.7796ZM19.238 32.7033C18.9267 32.6826 18.642 32.5391 18.4359 32.2988C18.23 32.0592 18.1283 31.7516 18.149 31.4325C18.1884 30.8064 18.701 30.316 19.313 30.316C19.339 30.316 19.3654 30.3168 19.3913 30.3183C19.7026 30.3395 19.9873 30.4828 20.1935 30.7231C20.3994 30.9632 20.501 31.2705 20.481 31.5896C20.4383 32.2423 19.8837 32.7475 19.238 32.7033ZM21.2283 35.4371C20.9285 35.4371 20.6433 35.3214 20.4256 35.1106C19.9633 34.6637 19.9383 33.9107 20.3673 33.4346C20.3896 33.4109 20.8454 32.9178 21.0641 32.6824L21.1789 32.5575C21.402 32.3168 21.7034 32.184 22.0276 32.184C22.3277 32.184 22.613 32.3004 22.8304 32.5116C23.0572 32.7307 23.1872 33.027 23.1956 33.3465C23.2042 33.6649 23.0907 33.9684 22.8763 34.1998L22.5512 34.5514C22.4816 34.6261 22.407 34.7069 22.3307 34.7892C22.3186 34.8032 22.3052 34.8171 22.2935 34.8302C22.2368 34.8912 22.1866 34.9452 22.1477 34.9868C22.1254 35.0113 22.1032 35.0359 22.0804 35.0597C22.0746 35.0657 22.0702 35.0709 22.0698 35.0716C21.8485 35.3074 21.5491 35.4371 21.2283 35.4371ZM23.8369 37.9629C23.6149 38.1987 23.3163 38.3282 22.9958 38.3282C22.6957 38.3282 22.41 38.2119 22.1928 38.0009C21.7308 37.554 21.7055 36.8011 22.1332 36.3273C22.1433 36.3161 22.411 36.0263 22.7143 35.6989C22.7143 35.6986 22.7143 35.6986 22.7143 35.6986L22.9396 35.4555C23.334 35.0284 23.4634 34.8896 23.507 34.8412C23.512 34.8364 23.518 34.8308 23.5222 34.8259L23.523 34.8252C23.5611 34.7831 23.5833 34.7597 23.584 34.759C23.8066 34.5183 24.1084 34.3853 24.4329 34.3853C24.733 34.3853 25.0177 34.5014 25.2357 34.7124C25.4625 34.9321 25.5919 35.2286 25.6004 35.5472C25.609 35.867 25.4955 36.1703 25.2803 36.4027C25.2596 36.4252 23.882 37.9138 23.8369 37.9629ZM27.6481 38.3783C27.6058 39.0305 27.0521 39.5363 26.4055 39.4929C25.7627 39.4492 25.2738 38.8791 25.3163 38.2221C25.3565 37.5954 25.8671 37.1052 26.48 37.1052C26.506 37.1052 26.5324 37.106 26.5583 37.1076C27.2011 37.1509 27.69 37.721 27.6481 38.3783ZM40.6891 31.2015L31.5956 21.9292L31.6982 21.6644C31.7512 21.5262 31.7444 21.3631 31.6667 21.2259C31.5889 21.0891 31.4586 21.0094 31.3222 21.002L30.6464 20.9606L29.9081 20.9159L29.852 21.811C29.8513 21.8296 29.705 23.865 28.6902 25.7039C27.6498 27.591 26.2713 28.2417 26.0612 28.2835C25.8264 28.3301 25.5803 28.3744 25.3757 28.3744C25.2351 28.3744 25.1269 28.3542 25.0342 28.3107L24.689 28.1472C24.5442 28.0785 24.4338 27.9526 24.3755 27.7919C24.3187 27.6369 24.3194 27.4674 24.3755 27.3129L27.8342 19.55L28.4222 19.1538L28.6592 19.0615H28.6587L33.0055 17.3659C33.2787 17.2595 33.5649 17.2036 33.8555 17.2009L33.8798 17.2007C34.1618 17.2007 34.4412 17.2506 34.7087 17.3492L39.7711 19.2099L44.0886 28.0625L40.6891 31.2015Z" fill="#192C4A"/>
<path d="M45.6092 13.1257L42.1917 14.8683C41.7002 15.1196 41.3015 15.5625 41.1133 16.1376C40.9251 16.7129 40.9835 17.3116 41.2279 17.8154L45.7025 26.9898C45.9478 27.4922 46.3805 27.9006 46.9439 28.0923C47.5058 28.2848 48.0912 28.2261 48.5836 27.975L52.0004 26.2315L45.6092 13.1257ZM48.5748 26.237C48.1209 26.237 47.7518 25.8606 47.7518 25.3957C47.7518 24.9304 48.1209 24.5531 48.5748 24.5531C49.0296 24.5531 49.3987 24.9304 49.3987 25.3957C49.3987 25.8606 49.0296 26.237 48.5748 26.237Z" fill="#F8AF5E"/>
<path d="M20.2378 15.9109C20.1351 15.3131 19.8068 14.8145 19.3566 14.491L16.2318 12.2466L8 24.231L11.1244 26.4758C11.5741 26.7993 12.1446 26.9467 12.7289 26.8421C13.3136 26.738 13.8007 26.4009 14.1164 25.9413L19.8789 17.5519C20.1955 17.0922 20.3396 16.5081 20.2378 15.9109ZM12.3233 24.0514C12.2553 24.5118 11.8362 24.8284 11.3863 24.7584C10.9364 24.6896 10.627 24.2607 10.695 23.8003C10.7628 23.3404 11.1823 23.0238 11.6313 23.0929C12.0814 23.1625 12.3905 23.5918 12.3233 24.0514Z" fill="#F8AF5E"/>
</svg>
