<svg class="grid4_svg" viewBox="0 0 53 53" fill="none" xmlns="http://www.w3.org/2000/svg">
<g clip-path="url(#clip0_1_1934)">
<path d="M39.75 48.0312H13.25C11.0537 48.0312 8.94731 47.1588 7.39427 45.6057C5.84124 44.0527 4.96875 41.9463 4.96875 39.75V16.5625C4.96875 16.1232 5.14325 15.702 5.45385 15.3914C5.76446 15.0807 6.18574 14.9062 6.625 14.9062H39.75C41.9463 14.9063 44.0527 15.7787 45.6057 17.3318C47.1588 18.8848 48.0312 20.9912 48.0312 23.1875V39.75C48.0312 41.9463 47.1588 44.0527 45.6057 45.6057C44.0527 47.1588 41.9463 48.0312 39.75 48.0312ZM8.28125 18.2188V39.75C8.28125 41.0678 8.80474 42.3316 9.73656 43.2634C10.6684 44.1953 11.9322 44.7188 13.25 44.7188H39.75C41.0678 44.7188 42.3316 44.1953 43.2634 43.2634C44.1953 42.3316 44.7188 41.0678 44.7188 39.75V23.1875C44.7188 21.8697 44.1953 20.6059 43.2634 19.6741C42.3316 18.7422 41.0678 18.2188 39.75 18.2188H8.28125Z" fill="#2D4366"/>
<path d="M43.0627 18.2188C42.6234 18.2188 42.2021 18.0443 41.8915 17.7337C41.5809 17.4231 41.4064 17.0018 41.4064 16.5625V12.0078C41.4382 11.4276 41.3385 10.8477 41.1148 10.3115C40.8911 9.77517 40.5492 9.29632 40.1146 8.91064C39.724 8.61807 39.272 8.41829 38.7927 8.32646C38.3135 8.23463 37.8196 8.25316 37.3486 8.38064L9.57331 14.691C9.19969 14.7751 8.86677 14.9861 8.63123 15.2881C8.39569 15.5901 8.27208 15.9643 8.28143 16.3472C8.28143 16.7865 8.10694 17.2077 7.79633 17.5183C7.48572 17.829 7.06445 18.0035 6.62518 18.0035C6.18592 18.0035 5.76464 17.829 5.45404 17.5183C5.14343 17.2077 4.96893 16.7865 4.96893 16.3472C4.95922 15.215 5.33649 14.1134 6.03829 13.2248C6.74009 12.3363 7.72432 11.7141 8.828 11.4613L36.6199 5.15095C37.5757 4.90926 38.5742 4.88958 39.5388 5.09341C40.5034 5.29724 41.4085 5.71918 42.1849 6.32689C43.0057 7.02358 43.6596 7.89577 44.0982 8.87905C44.5368 9.86233 44.749 10.9316 44.7189 12.0078V16.5625C44.7189 17.0018 44.5444 17.4231 44.2338 17.7337C43.9232 18.0443 43.5019 18.2188 43.0627 18.2188Z" fill="#2D4366"/>
<path d="M46.375 38.0938H34.7812C33.0242 38.0938 31.3391 37.3958 30.0967 36.1533C28.8542 34.9109 28.1562 33.2258 28.1562 31.4688C28.1562 29.7117 28.8542 28.0266 30.0967 26.7842C31.3391 25.5417 33.0242 24.8438 34.7812 24.8438H46.375C46.8143 24.8438 47.2355 25.0182 47.5461 25.3289C47.8568 25.6395 48.0312 26.0607 48.0312 26.5V36.4375C48.0312 36.8768 47.8568 37.298 47.5461 37.6086C47.2355 37.9193 46.8143 38.0938 46.375 38.0938ZM34.7812 28.1562C33.9027 28.1562 33.0602 28.5052 32.439 29.1265C31.8177 29.7477 31.4688 30.5902 31.4688 31.4688C31.4688 32.3473 31.8177 33.1898 32.439 33.811C33.0602 34.4323 33.9027 34.7812 34.7812 34.7812H44.7188V28.1562H34.7812Z" fill="#2D4366"/>
</g>
<defs>
<clipPath id="clip0_1_1934">
<rect width="53" height="53" fill="white"/>
</clipPath>
</defs>
</svg>
