<svg class="letter_icon" viewBox="0 0 59 59" fill="none" xmlns="http://www.w3.org/2000/svg">
<path d="M55.2402 26.1191C54.8867 26.1191 54.5332 26.3843 54.5332 26.8262V40.9663C54.5332 41.3198 54.7983 41.6733 55.2402 41.6733C55.6821 41.6733 55.9472 41.4082 55.9472 40.9663V26.8262C55.9472 26.3843 55.5937 26.1191 55.2402 26.1191Z" fill="white"/>
<path d="M55.2402 20.8164C54.8867 20.8164 54.5332 21.0815 54.5332 21.5234V23.2909C54.5332 23.6444 54.7983 23.9979 55.2402 23.9979C55.6821 23.9979 55.9472 23.7328 55.9472 23.2909V21.5234C55.9472 21.0815 55.5937 20.8164 55.2402 20.8164Z" fill="white"/>
<path d="M4.86473 8.79736C5.21823 8.79736 5.57174 8.53223 5.57174 8.09035V1.90403C5.57174 1.55053 5.30661 1.19702 4.86473 1.19702C4.42285 1.19702 4.24609 1.6389 4.24609 1.99241V8.17873C4.24609 8.53223 4.51122 8.79736 4.86473 8.79736Z" fill="white"/>
<path d="M4.86521 13.2162C5.21872 13.2162 5.57222 12.9511 5.57222 12.5092V11.6255C5.57222 11.272 5.30709 10.9185 4.86521 10.9185C4.42333 10.9185 4.1582 11.1836 4.1582 11.6255V12.5092C4.24658 12.9511 4.51171 13.2162 4.86521 13.2162Z" fill="white"/>
<path d="M7.34066 40.8778C7.34066 40.5243 7.07553 40.1708 6.63365 40.1708H5.57314V39.022C5.57314 38.6684 5.30801 38.3149 4.86613 38.3149C4.42425 38.3149 4.15912 38.5801 4.15912 39.022V40.1708H3.09861C2.74511 40.1708 2.3916 40.436 2.3916 40.8778C2.3916 41.3197 2.65673 41.5849 3.09861 41.5849H4.2475V42.7337C4.2475 43.0872 4.51263 43.4408 4.95451 43.4408C5.39639 43.4408 5.66152 43.1756 5.66152 42.7337V41.5849H6.8104C6.98716 41.5849 7.34066 41.2314 7.34066 40.8778Z" fill="white"/>
<path d="M52.5894 1.37378H18.1227C14.8528 1.37378 12.1131 4.02506 12.1131 7.38335V13.5697C12.1131 13.9232 12.3782 14.2767 12.8201 14.2767C13.262 14.2767 13.5271 14.0116 13.5271 13.5697V7.38335C13.5271 4.82045 15.6482 2.69942 18.2111 2.69942H19.0948C21.6577 2.69942 23.7788 4.82045 23.7788 7.38335V12.6859C23.7788 13.0394 24.0439 13.3929 24.4858 13.3929H27.137C27.4905 13.3929 27.8441 13.1278 27.8441 12.6859C27.8441 12.244 27.5789 11.9789 27.137 11.9789H25.1044V7.29498C25.1044 5.43908 24.2206 3.75993 22.895 2.61104H52.7661C55.5058 2.61104 56.5663 4.9972 56.5663 7.29498V11.9789H30.4953C30.1418 11.9789 29.7883 12.244 29.7883 12.6859C29.7883 13.1278 30.0535 13.3929 30.4953 13.3929H50.2032V51.6598C50.2032 54.2227 48.0822 56.3437 45.5193 56.3437C42.9564 56.3437 40.8353 54.2227 40.8353 51.6598V46.3572C40.8353 46.0037 40.5702 45.6502 40.1283 45.6502H13.5271V41.85C13.5271 41.4965 13.262 41.143 12.8201 41.143C12.3782 41.143 12.1131 41.4081 12.1131 41.85V45.6502H7.51756C7.16405 45.6502 6.81055 45.9153 6.81055 46.3572V51.6598C6.81055 54.9297 9.46183 57.6693 12.8201 57.6693H45.5193C48.7892 57.6693 51.5288 55.0181 51.5288 51.6598V13.3045H57.0965C57.45 13.3045 57.8035 13.0394 57.8035 12.5975V7.29498C57.7152 3.67156 55.6825 1.37378 52.5894 1.37378ZM12.8201 56.1669C10.2572 56.1669 8.13619 54.0459 8.13619 51.483V46.7991H39.5097V51.483C39.5097 53.3389 40.3935 55.0181 41.7191 56.1669H12.8201Z" fill="white"/>
<path d="M27.8428 31.8635H47.2855C47.639 31.8635 47.9925 31.5984 47.9925 31.1565C47.9925 30.7146 47.7274 30.4495 47.2855 30.4495H27.8428C27.4892 30.4495 27.1357 30.7146 27.1357 31.1565C27.1357 31.5984 27.4892 31.8635 27.8428 31.8635Z" fill="white"/>
<path d="M27.2246 26.7378C27.2246 27.0913 27.4897 27.4448 27.9316 27.4448H47.3744C47.7279 27.4448 48.0814 27.1796 48.0814 26.7378C48.0814 26.2959 47.8162 26.0308 47.3744 26.0308H27.9316C27.4897 26.1191 27.2246 26.3843 27.2246 26.7378Z" fill="white"/>
<path d="M36.6816 22.9375H47.2867C47.6403 22.9375 47.9938 22.6723 47.9938 22.2304C47.9938 21.7886 47.7286 21.5234 47.2867 21.5234H36.6816C36.3281 21.5234 35.9746 21.7886 35.9746 22.2304C35.9746 22.6723 36.3281 22.9375 36.6816 22.9375Z" fill="white"/>
<path d="M36.6816 18.5188H47.2867C47.6403 18.5188 47.9938 18.2536 47.9938 17.8117C47.9938 17.3699 47.7286 17.1047 47.2867 17.1047H36.6816C36.3281 17.1047 35.9746 17.3699 35.9746 17.8117C35.9746 18.2536 36.3281 18.5188 36.6816 18.5188Z" fill="white"/>
<path d="M27.8428 36.2823H47.2855C47.639 36.2823 47.9925 36.0172 47.9925 35.5753C47.9925 35.1334 47.7274 34.8683 47.2855 34.8683H27.8428C27.4892 34.8683 27.1357 35.1334 27.1357 35.5753C27.1357 36.0172 27.4892 36.2823 27.8428 36.2823Z" fill="white"/>
<path d="M27.8428 40.7011H47.2855C47.639 40.7011 47.9925 40.436 47.9925 39.9941C47.9925 39.5522 47.7274 39.2871 47.2855 39.2871H27.8428C27.4892 39.2871 27.1357 39.5522 27.1357 39.9941C27.1357 40.436 27.4892 40.7011 27.8428 40.7011Z" fill="white"/>
<path d="M12.8195 38.9336C15.9126 38.9336 18.7407 37.6963 20.7733 35.6637C22.806 33.631 24.0432 30.803 24.0432 27.7098C24.0432 21.5235 19.0058 16.3977 12.7311 16.3977C6.45639 16.3977 1.5957 21.4351 1.5957 27.6215C1.5957 33.8078 6.63314 38.9336 12.8195 38.9336ZM20.3314 34.1613L14.4986 28.3285H22.806C22.5408 30.5379 21.6571 32.5705 20.3314 34.1613ZM22.7176 27.0028H13.5265V17.7233C18.4755 18.0769 22.3641 21.9654 22.7176 27.0028ZM12.2008 17.7233V27.6215C12.2008 27.7098 12.2008 27.7982 12.2892 27.8866C12.2892 27.975 12.3776 28.0633 12.466 28.0633L19.4477 35.0451C17.6801 36.5475 15.3824 37.5196 12.9078 37.5196C7.42852 37.5196 2.92134 33.1008 2.92134 27.5331C2.92134 22.4073 6.98664 18.0769 12.2008 17.7233Z" fill="white"/>
<path d="M28.728 13.2161C28.9048 13.2161 29.0815 13.1278 29.1699 13.0394C29.2583 12.951 29.3466 12.7743 29.3466 12.5975C29.3466 12.4208 29.2583 12.244 29.1699 12.1556C29.0815 12.0673 29.0815 12.0673 28.9048 11.9789C28.728 11.8905 28.5512 11.8905 28.3745 11.9789C28.2861 11.9789 28.1977 12.0673 28.1977 12.1556C28.1094 12.244 28.1094 12.3324 28.021 12.4208C28.021 12.5091 27.9326 12.5975 27.9326 12.6859C27.9326 12.7743 27.9326 12.8626 27.9326 12.951C27.9326 13.0394 28.021 13.1278 28.1094 13.1278C28.3745 13.2161 28.5512 13.2161 28.728 13.2161Z" fill="white"/>
</svg>
