<svg class="grid4_svg" viewBox="0 0 54 54" fill="none" xmlns="http://www.w3.org/2000/svg">
<path d="M24.024 50.6343V49.073H45.1016C45.1016 49.934 44.4013 50.6343 43.5403 50.6343H24.024ZM14.6563 39.7052H22.4627V50.6343H14.6563V39.7052ZM10.753 50.6343C9.89195 50.6343 9.19171 49.934 9.19171 49.073H13.095V50.6343H10.753ZM6.06911 27.2148V23.3115H10.753V27.2148C10.753 28.5064 9.70264 29.5567 8.41106 29.5567C7.11947 29.5567 6.06911 28.5064 6.06911 27.2148ZM9.75573 17.2369C10.0879 16.7392 10.9353 16.2857 11.5337 16.2857H27.1466V14.7244H21.6821V13.1631H32.6112V14.7244V15.505V16.2857H42.7596C43.358 16.2857 44.2054 16.7392 44.5376 17.2369L47.5462 21.7502H42.7596H36.5144H30.2692H24.024H17.7789H11.5337H6.74711L9.75573 17.2369ZM15.8272 10.8211V4.57595C15.8272 4.14542 16.1773 3.7953 16.6079 3.7953H37.6854C38.1159 3.7953 38.4661 4.14542 38.4661 4.57595V10.8211C38.4661 11.2517 38.1159 11.6018 37.6854 11.6018H16.6079C16.1773 11.6018 15.8272 11.2517 15.8272 10.8211ZM48.2242 27.2148C48.2242 28.5064 47.1738 29.5567 45.8822 29.5567C44.5906 29.5567 43.5403 28.5064 43.5403 27.2148V23.3115H48.2242V27.2148ZM37.2951 23.3115H41.979V27.2148C41.979 28.5064 40.9286 29.5567 39.637 29.5567C38.3455 29.5567 37.2951 28.5064 37.2951 27.2148V23.3115ZM31.0499 23.3115H35.7338V27.2148C35.7338 28.5064 34.6834 29.5567 33.3918 29.5567C32.1003 29.5567 31.0499 28.5064 31.0499 27.2148V23.3115ZM24.8047 23.3115H29.4886V27.2148C29.4886 28.5064 28.4382 29.5567 27.1466 29.5567C25.8551 29.5567 24.8047 28.5064 24.8047 27.2148V23.3115ZM18.5595 23.3115H23.2434V27.2148C23.2434 28.5064 22.193 29.5567 20.9014 29.5567C19.6099 29.5567 18.5595 28.5064 18.5595 27.2148V23.3115ZM12.3143 23.3115H16.9982V27.2148C16.9982 28.5064 15.9478 29.5567 14.6563 29.5567C13.3647 29.5567 12.3143 28.5064 12.3143 27.2148V23.3115ZM22.4627 38.1439H14.6563V37.3632C14.6563 36.9327 15.0064 36.5826 15.4369 36.5826H21.6821C22.1126 36.5826 22.4627 36.9327 22.4627 37.3632V38.1439ZM45.1016 47.5117H24.024V39.7052V38.1439V37.3632C24.024 36.0716 22.9737 35.0213 21.6821 35.0213H15.4369C14.1453 35.0213 13.095 36.0716 13.095 37.3632V38.1439V39.7052V47.5117H9.19171V31.0392C10.1453 30.8452 10.9704 30.2991 11.5337 29.5466C12.246 30.4982 13.3787 31.118 14.6563 31.118C15.9338 31.118 17.0665 30.4982 17.7789 29.5466C18.4912 30.4982 19.6239 31.118 20.9014 31.118C22.179 31.118 23.3117 30.4982 24.024 29.5466C24.7364 30.4982 25.8691 31.118 27.1466 31.118C28.4242 31.118 29.5569 30.4982 30.2692 29.5466C30.9816 30.4982 32.1143 31.118 33.3918 31.118C34.6694 31.118 35.8021 30.4982 36.5144 29.5466C37.2268 30.4982 38.3595 31.118 39.637 31.118C40.9146 31.118 42.0473 30.4982 42.7596 29.5466C43.3229 30.2991 44.148 30.8452 45.1016 31.0392V47.5117ZM46.6629 31.0392C48.4424 30.6766 49.7855 29.0997 49.7855 27.2148V22.5309C49.7855 22.3708 49.7367 22.1406 49.6539 22.1406H49.6543L49.6524 22.1164C49.6524 22.116 49.652 22.105 49.6516 22.1046L45.8366 16.3762C45.2105 15.4375 43.8881 14.7244 42.7596 14.7244H34.1725V13.1631H37.6854C38.977 13.1631 40.0274 12.1127 40.0274 10.8211V4.57595C40.0274 3.28437 38.977 2.234 37.6854 2.234H16.6079C15.3163 2.234 14.2659 3.28437 14.2659 4.57595V10.8211C14.2659 12.1127 15.3163 13.1631 16.6079 13.1631H20.1208V14.7244H11.5337C10.4052 14.7244 9.08281 15.432 8.45673 16.3712L4.64169 22.0941C4.6413 22.0945 4.64091 22.116 4.64091 22.1164L4.63896 22.1406H4.63935C4.5566 22.1406 4.50781 22.3708 4.50781 22.5309V27.2148C4.50781 29.0997 5.85092 30.6766 7.63041 31.0392V49.073C7.63041 49.6421 7.78576 50.1745 8.05313 50.6343H5.28846V52.1956H10.753H13.095H24.024H43.5403H49.0048V50.6343H46.2402C46.5075 50.1745 46.6629 49.6421 46.6629 49.073V31.0392Z" fill="#2D4366"/>
<path d="M42.3688 43.9986C42.3688 44.428 42.0176 44.7793 41.5882 44.7793H27.5365C27.1072 44.7793 26.7559 44.428 26.7559 43.9986V35.8018C26.7559 35.3725 27.1072 35.0212 27.5365 35.0212H41.5882C42.0176 35.0212 42.3688 35.3725 42.3688 35.8018V43.9986Z" fill="#E0E0E0"/>
<path d="M21.2918 46.731H19.7305V43.6084H21.2918V46.731Z" fill="#F8AF5E"/>
<path d="M33.3927 6.91774H20.9023V5.35645H33.3927V6.91774Z" fill="#F8AF5E"/>
<path d="M30.6586 10.0403H23.6328V8.479H30.6586V10.0403Z" fill="#F8AF5E"/>
</svg>
