<svg class="grid4_svg" viewBox="0 0 53 53" fill="none" xmlns="http://www.w3.org/2000/svg">
<g clip-path="url(#clip0_1_1798)">
<path d="M37.5355 0H15.0992C13.7468 0 12.4498 0.537231 11.4935 1.49351C10.5372 2.44979 10 3.74678 10 5.09916V47.9321C10 49.2845 10.5372 50.5815 11.4935 51.5377C12.4498 52.494 13.7468 53.0313 15.0992 53.0313H37.5355C38.2051 53.0313 38.8682 52.8994 39.4868 52.6431C40.1055 52.3868 40.6676 52.0112 41.1411 51.5377C41.6146 51.0642 41.9902 50.5021 42.2465 49.8835C42.5027 49.2648 42.6346 48.6017 42.6346 47.9321V5.09916C42.6346 4.42953 42.5027 3.76645 42.2465 3.1478C41.9902 2.52914 41.6146 1.96701 41.1411 1.49351C40.6676 1.02001 40.1055 0.644407 39.4868 0.38815C38.8682 0.131894 38.2051 0 37.5355 0ZM40.595 47.9321C40.595 48.7435 40.2726 49.5217 39.6988 50.0955C39.1251 50.6692 38.3469 50.9916 37.5355 50.9916H15.0992C14.2877 50.9916 13.5095 50.6692 12.9358 50.0955C12.362 49.5217 12.0397 48.7435 12.0397 47.9321V5.09916C12.0397 4.28773 12.362 3.50954 12.9358 2.93577C13.5095 2.362 14.2877 2.03966 15.0992 2.03966H37.5355C38.3469 2.03966 39.1251 2.362 39.6988 2.93577C40.2726 3.50954 40.595 4.28773 40.595 5.09916V47.9321Z" fill="#2D4366"/>
<path d="M14.0801 42.833H38.556V8.15869H14.0801V42.833ZM16.1197 10.1984H36.5164V40.7933H16.1197V10.1984Z" fill="#2D4366"/>
<path d="M26.317 48.9519C27.4435 48.9519 28.3567 48.0387 28.3567 46.9122C28.3567 45.7857 27.4435 44.8726 26.317 44.8726C25.1905 44.8726 24.2773 45.7857 24.2773 46.9122C24.2773 48.0387 25.1905 48.9519 26.317 48.9519Z" fill="#F8AF5E"/>
<path d="M30.3969 4.07935H22.2383V6.11901H30.3969V4.07935Z" fill="#F8AF5E"/>
</g>
<defs>
<clipPath id="clip0_1_1798">
<rect width="53" height="53" fill="white"/>
</clipPath>
</defs>
</svg>
