<svg class="grid4_svg" viewBox="0 0 54 54" fill="none" xmlns="http://www.w3.org/2000/svg">
<path d="M46.9241 38.9673L40.2217 34.284C39.3453 33.6738 38.3208 33.351 37.2585 33.351C35.5687 33.351 33.983 34.1795 33.0172 35.5656L31.4613 37.7954C28.8537 36.0465 25.9435 33.6046 23.1707 30.8318C20.3974 28.0585 17.9555 25.1488 16.2077 22.5412L18.4359 20.9858C20.7753 19.3567 21.3506 16.1247 19.7175 13.7798L15.0352 7.07844C14.0557 5.67764 12.4756 4.84161 10.8086 4.84161C10.2312 4.84161 9.66441 4.94315 9.1244 5.14269C8.51215 5.3695 7.94183 5.64683 7.38212 5.99791L6.45668 6.64956C6.22531 6.8299 6.01012 7.02641 5.80402 7.23251C4.675 8.36153 3.87332 9.79011 3.42171 11.4793C1.49252 18.7116 6.27179 29.6462 15.3141 38.6885C22.9075 46.2819 32.0301 50.9996 39.1215 51.0001C39.122 51.0001 39.1225 51.0001 39.123 51.0001C40.3364 51.0001 41.48 50.8586 42.5237 50.5808C44.2129 50.1292 45.6415 49.3275 46.769 48.1995C46.9756 47.9939 47.1726 47.7782 47.3828 47.5059L48.0354 46.5744C48.3552 46.0622 48.6325 45.4914 48.8598 44.8781C49.6489 42.7464 48.8533 40.3156 46.9241 38.9673Z" fill="#2D4366"/>
<path d="M43.4758 10.5271C39.0168 6.06757 33.0974 3.3953 26.8083 3.00229C26.2415 2.96441 25.7469 3.40036 25.7111 3.97017C25.6752 4.54049 26.1086 5.0315 26.6789 5.06736C32.4645 5.42906 37.91 7.88764 42.0129 11.99C46.1147 16.0919 48.5728 21.5369 48.935 27.3224C48.9694 27.8705 49.4245 28.2923 49.9665 28.2923C49.9883 28.2923 50.01 28.2918 50.0322 28.2903C50.6025 28.2545 51.036 27.7634 51.0001 27.1931C50.6066 20.9045 47.9343 14.9856 43.4758 10.5271Z" fill="#F8AF5E"/>
<path d="M26.2903 11.2625C30.5664 11.5303 34.591 13.3473 37.6229 16.3792C40.6543 19.4112 42.4714 23.4352 42.7391 27.7104C42.7734 28.2585 43.2286 28.6803 43.7706 28.6803C43.7923 28.6803 43.8141 28.6797 43.8363 28.6782C44.4066 28.6424 44.84 28.1514 44.8042 27.581C44.5051 22.8023 42.4744 18.3044 39.0858 14.9163C35.6972 11.5277 31.1988 9.49651 26.4196 9.19746C25.8472 9.16563 25.3583 9.59552 25.3224 10.1653C25.2865 10.7357 25.7199 11.2267 26.2903 11.2625Z" fill="#F8AF5E"/>
<path d="M25.9035 17.4578C28.6693 17.631 31.2728 18.8065 33.2348 20.768C35.1964 22.7301 36.3719 25.3331 36.5456 28.0983C36.58 28.6469 37.0356 29.0682 37.5772 29.0682C37.5989 29.0682 37.6211 29.0677 37.6428 29.0662C38.2131 29.0304 38.6466 28.5388 38.6107 27.969C38.4056 24.7002 37.0159 21.6238 34.6978 19.3051C32.3791 16.987 29.3017 15.5973 26.0329 15.3927C25.455 15.3538 24.9715 15.7908 24.9357 16.3606C24.8998 16.9309 25.3332 17.4219 25.9035 17.4578Z" fill="#F8AF5E"/>
</svg>
