<svg class="grid4_svg" viewBox="0 0 53 53" fill="none" xmlns="http://www.w3.org/2000/svg">
<g clip-path="url(#clip0_1_2348)">
<path d="M19.875 6.625C21.5129 6.625 23.114 7.11069 24.4758 8.02064C25.8377 8.9306 26.8991 10.224 27.5259 11.7372C28.1527 13.2504 28.3167 14.9154 27.9971 16.5218C27.6776 18.1282 26.8889 19.6038 25.7307 20.762C24.5726 21.9201 23.097 22.7088 21.4906 23.0284C19.8842 23.3479 18.2191 23.1839 16.7059 22.5571C15.1927 21.9303 13.8994 20.8689 12.9894 19.5071C12.0794 18.1452 11.5938 16.5441 11.5938 14.9062C11.5938 12.7099 12.4662 10.6036 14.0193 9.05052C15.5723 7.49749 17.6787 6.625 19.875 6.625ZM19.875 3.3125C17.582 3.3125 15.3404 3.99246 13.4339 5.2664C11.5273 6.54034 10.0413 8.35103 9.16378 10.4695C8.28627 12.588 8.05668 14.9191 8.50403 17.1681C8.95137 19.417 10.0556 21.4829 11.677 23.1043C13.2984 24.7257 15.3642 25.8299 17.6132 26.2772C19.8621 26.7246 22.1933 26.495 24.3117 25.6175C26.4302 24.74 28.2409 23.254 29.5149 21.3474C30.7888 19.4408 31.4688 17.1993 31.4688 14.9062C31.4688 11.8314 30.2473 8.88248 28.073 6.70823C25.8988 4.53398 22.9499 3.3125 19.875 3.3125Z" fill="#2D4366"/>
<path d="M36.4375 49.6875H33.125V41.4062C33.125 39.2099 32.2525 37.1036 30.6995 35.5505C29.1464 33.9975 27.0401 33.125 24.8438 33.125H14.9062C12.7099 33.125 10.6036 33.9975 9.05052 35.5505C7.49749 37.1036 6.625 39.2099 6.625 41.4062V49.6875H3.3125V41.4062C3.3125 38.3314 4.53398 35.3825 6.70823 33.2082C8.88248 31.034 11.8314 29.8125 14.9062 29.8125H24.8438C27.9186 29.8125 30.8675 31.034 33.0418 33.2082C35.216 35.3825 36.4375 38.3314 36.4375 41.4062V49.6875Z" fill="#2D4366"/>
<path d="M53 6.625H36.4375V9.9375H53V6.625Z" fill="#F8AF5E"/>
<path d="M53 14.9062H36.4375V18.2188H53V14.9062Z" fill="#F8AF5E"/>
<path d="M48.0312 23.1875H36.4375V26.5H48.0312V23.1875Z" fill="#F8AF5E"/>
</g>
<defs>
<clipPath id="clip0_1_2348">
<rect width="53" height="53" fill="white"/>
</clipPath>
</defs>
</svg>
