<svg class="grid4_svg" viewBox="0 0 53 53" fill="none" xmlns="http://www.w3.org/2000/svg">
<g clip-path="url(#clip0_1_1675)">
<path d="M26.5 17.3906C21.0344 17.3906 16.5625 21.8625 16.5625 27.3281C16.5625 32.7937 21.0344 37.2656 26.5 37.2656C31.9656 37.2656 36.4375 32.7937 36.4375 27.3281C36.4375 21.8625 31.9656 17.3906 26.5 17.3906ZM26.5 33.9531C22.8562 33.9531 19.875 30.9719 19.875 27.3281C19.875 23.6844 22.8562 20.7031 26.5 20.7031C30.1438 20.7031 33.125 23.6844 33.125 27.3281C33.125 30.9719 30.1438 33.9531 26.5 33.9531Z" fill="#F8AF5E"/>
<path d="M26.5004 41.7373C20.3309 41.7373 14.4098 44.3045 10.1863 48.8178L9.06836 50.0186L11.4699 52.2959L12.5879 51.0951C16.2316 47.2029 21.159 45.0498 26.5004 45.0498C31.8418 45.0498 36.7691 47.2029 40.4129 51.0951L41.5309 52.2959L43.9324 50.0186L42.8144 48.8178C38.591 44.3459 32.6699 41.7373 26.5004 41.7373Z" fill="#2D4366"/>
<path d="M40.1641 19.8335V23.146C44.0562 23.146 47.6586 24.7194 50.35 27.5765L52.7516 25.2991C49.5219 21.821 44.9258 19.8335 40.1641 19.8335Z" fill="#2D4366"/>
<path d="M48.073 8.28115C48.073 3.9335 44.5121 0.372559 40.1645 0.372559C35.8168 0.372559 32.2559 3.9335 32.2559 8.28115C32.2559 12.6288 35.8168 16.1897 40.1645 16.1897C44.5121 16.1897 48.073 12.6288 48.073 8.28115ZM35.5684 8.28115C35.5684 5.75537 37.6387 3.68506 40.1645 3.68506C42.6902 3.68506 44.7605 5.75537 44.7605 8.28115C44.7605 10.8069 42.6902 12.8772 40.1645 12.8772C37.6387 12.8772 35.5684 10.8069 35.5684 8.28115Z" fill="#2D4366"/>
<path d="M12.8355 19.8335C8.07383 19.8335 3.47773 21.821 0.248047 25.2991L2.64961 27.5765C5.29961 24.7194 8.94336 23.146 12.8355 23.146V19.8335Z" fill="#2D4366"/>
<path d="M20.7449 8.28115C20.7449 3.9335 17.184 0.372559 12.8363 0.372559C8.48867 0.372559 4.92773 3.9335 4.92773 8.28115C4.92773 12.6288 8.48867 16.1897 12.8363 16.1897C17.184 16.1897 20.7449 12.6288 20.7449 8.28115ZM12.8363 12.8772C10.3105 12.8772 8.24023 10.8069 8.24023 8.28115C8.24023 5.75537 10.3105 3.68506 12.8363 3.68506C15.3621 3.68506 17.4324 5.75537 17.4324 8.28115C17.4324 10.8069 15.3621 12.8772 12.8363 12.8772Z" fill="#2D4366"/>
</g>
<defs>
<clipPath id="clip0_1_1675">
<rect width="53" height="53" fill="white"/>
</clipPath>
</defs>
</svg>
