<svg class="grid4_svg" viewBox="0 0 53 53" fill="none" xmlns="http://www.w3.org/2000/svg">
<path d="M26.4997 17.6665H22.083V28.7082H26.4997V17.6665Z" fill="#F8AF5E"/>
<path d="M35.3327 17.6665H30.916V28.7082H35.3327V17.6665Z" fill="#F8AF5E"/>
<path d="M44.1667 24.2915L39.75 28.7082V17.6665H44.1667V24.2915Z" fill="#F8AF5E"/>
<path d="M49.6875 11.0416H16.5625C15.9 11.0416 15.4583 10.5999 15.4583 9.93742V8.83325V5.52075C15.4583 3.64367 14.0229 2.20825 12.1458 2.20825H0V4.41659H0.110417C0.552083 6.62492 2.31875 8.28117 4.52708 8.72284C4.96875 11.2624 7.2875 13.2499 9.9375 13.2499H13.25V28.7083H15.4583V13.0291C15.7896 13.1395 16.1208 13.2499 16.5625 13.2499H49.6875C50.35 13.2499 50.7917 13.6916 50.7917 14.3541V22.0833C50.7917 22.9666 50.2396 24.5124 49.5771 25.1749L42.6208 32.9041C42.0687 33.5666 40.6333 34.2291 39.75 34.2291H16.5625C14.6854 34.2291 13.25 35.6645 13.25 37.5416V39.8603C10.7104 40.4124 8.83333 42.6208 8.83333 45.2708C8.83333 48.3624 11.2625 50.7916 14.3542 50.7916C17.0042 50.7916 19.2125 48.9145 19.7646 46.3749H28.8187C29.3708 48.9145 31.5792 50.7916 34.2292 50.7916C37.3208 50.7916 39.75 48.3624 39.75 45.2708C39.75 42.1791 37.3208 39.7499 34.2292 39.7499C31.5792 39.7499 29.3708 41.627 28.8187 44.1666H19.7646C19.3229 41.9583 17.6667 40.302 15.4583 39.8603V37.5416C15.4583 36.8791 15.9 36.4374 16.5625 36.4374H39.75C41.2958 36.4374 43.1729 35.5541 44.2771 34.4499L51.2333 26.7208C52.2271 25.6166 53 23.6291 53 22.0833V14.3541C53 12.477 51.5646 11.0416 49.6875 11.0416ZM2.42917 4.41659H12.1458C12.8083 4.41659 13.25 4.85825 13.25 5.52075V6.62492H5.52083C4.08542 6.62492 2.87083 5.74159 2.42917 4.41659ZM9.9375 11.0416C8.50208 11.0416 7.2875 10.1583 6.84583 8.83325H13.25V9.93742V11.0416H9.9375ZM34.2292 41.9583C36.1062 41.9583 37.5417 43.3937 37.5417 45.2708C37.5417 47.1478 36.1062 48.5833 34.2292 48.5833C32.3521 48.5833 30.9167 47.1478 30.9167 45.2708C30.9167 43.3937 32.3521 41.9583 34.2292 41.9583ZM17.6667 45.2708C17.6667 47.1478 16.2312 48.5833 14.3542 48.5833C12.4771 48.5833 11.0417 47.1478 11.0417 45.2708C11.0417 43.3937 12.4771 41.9583 14.3542 41.9583C16.2312 41.9583 17.6667 43.3937 17.6667 45.2708Z" fill="#2D4366"/>
<path d="M34.2295 46.927C35.1128 46.927 35.8857 46.1541 35.8857 45.2708C35.8857 44.3874 35.1128 43.6145 34.2295 43.6145C33.3462 43.6145 32.5732 44.3874 32.5732 45.2708C32.5732 46.1541 33.3462 46.927 34.2295 46.927Z" fill="#2D4366"/>
<path d="M12.6982 45.2708C12.6982 46.1541 13.4712 46.927 14.3545 46.927C15.2378 46.927 16.0107 46.1541 16.0107 45.2708C16.0107 44.3874 15.2378 43.6145 14.3545 43.6145C13.4712 43.6145 12.6982 44.3874 12.6982 45.2708Z" fill="#2D4366"/>
</svg>
