<svg class="threeGrid_svg" viewBox="0 0 53 53" fill="none" xmlns="http://www.w3.org/2000/svg">
<g clip-path="url(#clip0_1_13251)">
<path d="M19.7612 33.8385L19.3841 37.4004C19.3536 37.6878 19.4466 37.9746 19.64 38.1894C19.8332 38.4043 20.1087 38.5269 20.3978 38.5269H31.1751C31.464 38.5269 31.7395 38.4042 31.9329 38.1894C32.1261 37.9746 32.2191 37.6878 32.1888 37.4004L31.8117 33.8385H45.2359C47.3252 33.8385 49.025 32.1387 49.025 30.0493V3.78914C49.0249 1.69975 47.325 0 45.2357 0H5.52156C3.43217 0 1.73242 1.69975 1.73242 3.78914V30.0493C1.73242 32.1387 3.43217 33.8385 5.52156 33.8385H19.7612ZM30.0421 36.4885H21.5305L21.811 33.8385H29.7614L30.0421 36.4885ZM5.52156 2.03856H45.2357C46.201 2.03856 46.9863 2.82381 46.9863 3.78914V26.9076H3.77098V3.78914C3.77098 2.82381 4.55624 2.03856 5.52156 2.03856ZM3.77098 30.0493V28.9462H46.9862V30.0493C46.9862 31.0147 46.2009 31.7999 45.2356 31.7999H5.52156C4.55624 31.7999 3.77098 31.0147 3.77098 30.0493Z" fill="#2D4366"/>
<path d="M45.2083 46.2301C45.3931 45.9257 45.4057 45.5469 45.2414 45.2309L43.2283 41.3578C43.0528 41.0203 42.7042 40.8086 42.3238 40.8086H8.43479C8.05453 40.8086 7.7058 41.0203 7.53035 41.3578L5.5172 45.2309C5.35303 45.5469 5.36553 45.9257 5.55036 46.2301C5.73519 46.5345 6.06557 46.7203 6.42164 46.7203H44.337C44.693 46.7204 45.0234 46.5345 45.2083 46.2301ZM8.10019 44.6819L9.05369 42.8473H41.7048L42.6584 44.6819H8.10019Z" fill="#2D4366"/>
<path d="M46.9859 48.5547H45.3551C42.9947 48.5547 41.0742 50.475 41.0742 52.8355C41.0742 53.3984 41.5306 53.8548 42.0935 53.8548H50.2473C50.8102 53.8548 51.2666 53.3984 51.2666 52.8355C51.2667 50.4751 49.3464 48.5547 46.9859 48.5547ZM43.3582 51.8162C43.7299 51.0909 44.4855 50.5932 45.3551 50.5932H46.9859C47.8554 50.5932 48.611 51.0909 48.9829 51.8162H43.3582Z" fill="#2D4366"/>
</g>
<defs>
<clipPath id="clip0_1_13251">
<rect width="53" height="53" fill="white"/>
</clipPath>
</defs>
</svg>
