<svg class="threeGrid_svg" viewBox="0 0 53 53" fill="none" xmlns="http://www.w3.org/2000/svg">
<path fill-rule="evenodd" clip-rule="evenodd" d="M26.5 25.5735C31.4246 25.5735 35.4444 21.7543 35.4444 17C35.4444 12.2456 31.4246 8.42647 26.5 8.42647C21.5754 8.42647 17.5556 12.2456 17.5556 17C17.5556 21.7543 21.5754 25.5735 26.5 25.5735ZM38 17C38 23.0775 32.8538 28 26.5 28C20.1463 28 15 23.0775 15 17C15 10.9225 20.1463 6 26.5 6C32.8538 6 38 10.9225 38 17Z" fill="#2D4366"/>
<path fill-rule="evenodd" clip-rule="evenodd" d="M19.1568 33.793C18.8714 33.2025 18.2267 32.8833 17.5982 33.0394C10.8431 34.7159 4 38.1344 4 43.277V46.4752C4 47.8695 5.11929 49 6.5 49H46.5C47.8807 49 49 47.8695 49 46.4752V43.277C49 38.1344 42.1569 34.7159 35.4018 33.0394C34.7733 32.8833 34.1286 33.2025 33.8433 33.793L28.7631 37.5803C27.6522 37.5805 27.0866 37.5805 26.531 37.5805C25.9546 37.5804 25.389 37.5804 24.2366 37.5807L19.1568 33.793ZM35.5256 35.6771L29.5861 40.105L28.7636 40.1051C27.6454 40.1054 27.0826 40.1054 26.53 40.1054C25.9573 40.1053 25.3954 40.1053 24.2373 40.1055L23.414 40.1058L17.4744 35.6771C14.5096 36.471 11.7049 37.5883 9.64525 38.9642C7.36578 40.487 6.5 41.9625 6.5 43.277V46.4752H46.5V43.277C46.5 41.9625 45.6343 40.487 43.3547 38.9642C41.2951 37.5883 38.4905 36.471 35.5256 35.6771Z" fill="#2D4366"/>
</svg>
