<svg class="threeGrid_svg" viewBox="0 0 53 53" fill="none" xmlns="http://www.w3.org/2000/svg">
<path d="M21.4236 41.7277C25.2252 41.7277 29.0208 40.6049 32.2857 38.3804L45.5009 51.5961C45.6907 51.7859 45.9404 51.8801 46.1885 51.8801C46.4367 51.8801 46.6863 51.7859 46.8762 51.5961L50.5971 47.8751C50.7779 47.6927 50.8811 47.446 50.8811 47.1889C50.8811 46.9317 50.7779 46.6836 50.5971 46.5027L37.3804 33.287C42.4975 25.7732 41.7381 15.4264 35.0812 8.76779C27.5513 1.23756 15.2974 1.23756 7.76743 8.76779C0.238982 16.298 0.238982 28.5509 7.76743 36.0811C11.5317 39.8455 16.4784 41.7277 21.4236 41.7277ZM48.5356 47.1874L46.1885 49.5345L33.8479 37.1934C34.2695 36.8391 34.6851 36.4758 35.0812 36.0796C35.4774 35.6835 35.8406 35.2679 36.1934 34.8478L48.5356 47.1874ZM9.14276 10.1402C12.5288 6.75405 16.9762 5.06173 21.4251 5.06173C25.874 5.06173 30.3214 6.75554 33.7074 10.1402C40.4794 16.914 40.4794 27.9335 33.7074 34.7057C26.9369 41.478 15.9148 41.4765 9.14276 34.7057C2.36925 27.9335 2.36925 16.914 9.14276 10.1402ZM21.4236 36.3652C25.1459 36.3652 28.6486 34.915 31.2826 32.2824C36.7182 26.8466 36.7182 18.0023 31.2826 12.5665C25.8456 7.13078 17.0016 7.13228 11.566 12.5665C6.13048 18.0023 6.13048 26.8466 11.566 32.2824C14.1986 34.915 17.6997 36.3652 21.4236 36.3652ZM12.9414 13.9389C15.2794 11.6008 18.3515 10.4302 21.4251 10.4302C24.4971 10.4302 27.5692 11.5993 29.9088 13.9389C34.5864 18.6167 34.5864 26.2292 29.9088 30.907C27.6425 33.1734 24.6302 34.4217 21.4251 34.4217C18.2185 34.4217 15.2077 33.1734 12.9414 30.907C8.26374 26.2292 8.26374 18.6182 12.9414 13.9389ZM13.3809 20.9833C13.3809 16.5925 16.9523 13.0225 21.3414 13.0225C21.878 13.0225 22.3131 13.4576 22.3131 13.9943C22.3131 14.5309 21.878 14.966 21.3414 14.966C18.0226 14.966 15.3258 17.6659 15.3258 20.9833C15.3258 21.52 14.8907 21.955 14.3541 21.955C13.8174 21.955 13.3809 21.5185 13.3809 20.9833Z" fill="#2D4366"/>
</svg>
